<svg width="64" height="64" viewBox="0 0 64 64" fill="none" xmlns="http://www.w3.org/2000/svg">
<path d="M41.1541 30.3706C40.7442 26.1344 38.8311 21.6249 34.0483 20.2584C31.3153 19.4385 25.8492 23.128 27.2157 19.9851C28.8555 15.8855 34.8682 15.4756 37.7379 18.2086C39.5143 19.9851 40.7442 22.7181 41.1541 25.1778C41.4274 26.8176 41.1541 28.4574 41.2908 30.0973L41.1541 30.3706Z" fill="#00A1E9"/>
<path d="M52.223 20.5319C50.1732 17.7989 46.8936 19.8487 45.2538 21.7618C43.4773 23.9482 41.9741 27.0912 41.9741 29.9609C42.3841 26.8179 44.4338 24.3582 47.0302 23.1283C48.3967 22.4451 50.0365 22.0351 51.5397 22.5817C53.0429 23.265 52.9062 21.3518 52.223 20.5319Z" fill="#00A1E9"/>
<path d="M55.9125 9.32625C54.6826 7.82308 52.6328 7.82308 50.993 8.23304C47.4401 9.18959 44.5704 13.8357 43.2039 18.7552C43.3405 17.5253 44.2971 13.2891 41.8374 12.6059C41.4274 12.4692 40.1976 12.7425 40.4709 13.4258C40.6075 14.109 41.5641 14.3823 41.974 14.7923C43.2039 16.0222 42.5206 19.0285 42.2473 20.395C41.974 21.8982 41.8374 23.538 41.974 25.1778C42.384 21.6249 44.5704 17.3887 46.4835 15.2022C47.4401 14.109 48.6699 13.2891 50.0365 13.0158C51.8129 12.7425 53.5894 13.1525 55.2292 12.8792C57.1423 12.6059 57.0057 10.6928 55.9125 9.32625Z" fill="#00A1E9"/>
<path d="M37.0547 12.7423C36.5081 12.3323 35.1416 11.6491 35.2782 12.8789C35.4149 13.8355 37.8746 14.6554 38.5579 15.7486C38.8312 16.2952 39.1045 16.8418 39.2411 17.3884C38.8312 15.7486 38.4212 13.9721 37.0547 12.7423Z" fill="#00A1E9"/>
<path d="M17.9844 25.475C18.3933 26.9359 18.3365 28.4943 17.8308 29.9302C17.4672 30.9623 17.2309 32.023 17.1224 33.0938C16.7044 37.2212 19.4982 41.0149 23.5538 41.8881C28.4972 42.9525 33.8512 41.2407 37.21 37.025L39.0729 34.687C42.09 30.9002 46.5263 28.6083 51.2528 28.2642C52.1805 28.1966 52.9964 28.8787 53.1064 29.8023C54.2112 39.0748 48.8998 47.8897 40.4344 51.3301C38.0261 52.3089 33.3335 53.1431 33.3335 53.1431C24.031 55.0311 14.7422 48.992 12.8656 39.6872C12.0851 35.817 12.6682 31.988 14.2833 28.6972C10.3881 26.9033 7.98152 22.7242 8.59075 18.2522C11.4004 18.3264 13.9119 19.5456 15.6892 21.4513C16.1333 21.9276 16.8064 22.1201 17.433 21.9429C20.0508 21.202 22.9589 21.5181 25.4571 23.0569C24.0103 26.1074 21.2396 28.0982 18.1587 28.644" fill="white"/>
<path d="M53.1068 29.8024C53.1866 30.4728 53.2328 31.1401 53.2468 31.8033C51.2732 32.0378 49.3658 32.6079 47.6048 33.4724C44.9103 34.796 42.7894 37.0763 41.6914 39.8703C41.1401 41.2714 40.4002 42.6143 39.4705 43.8574C39.045 44.4267 38.9972 45.1899 39.3548 45.8039C40.3287 47.4748 40.6802 49.4355 40.4344 51.3298C40.2869 52.4641 39.9256 53.574 39.3555 54.5834C39.0513 55.121 38.296 55.1912 37.9061 54.7132C37.351 54.0322 36.9115 53.2786 36.5935 52.4816C36.0356 51.0923 35.8457 49.5712 36.0477 48.0723C36.0835 47.8088 36.0903 47.5431 36.0708 47.2801C33.8558 48.9474 31.2926 50.0203 28.6712 50.4683C21.7217 51.6556 14.9723 47.4582 13.1053 40.7098C11.9146 36.4062 12.6682 31.9885 14.2832 28.6976C10.3881 26.9035 7.98117 22.7245 8.59033 18.2522C11.4007 18.3264 13.9123 19.546 15.689 21.4513C16.1331 21.9281 16.8059 22.1201 17.4333 21.9427C20.0505 21.2018 22.9592 21.5185 25.457 23.057C24.0102 26.1075 21.2395 28.0983 18.1586 28.6441C17.9409 29.8006 17.2941 31.2969 17.1226 33.0942C16.7283 37.224 19.4979 41.0149 23.5534 41.8882C28.4975 42.9524 33.8515 41.2409 37.2098 37.0248L39.0726 34.6871C42.0903 30.8999 46.5267 28.6086 51.2529 28.2645C52.1801 28.1969 52.9961 28.8785 53.1068 29.8024Z" fill="#00A1E9"/>
<path d="M51.1893 27.3923C50.4268 27.4388 49.6612 27.5524 48.9118 27.7045C43.0819 28.8877 39.7131 32.4801 38.389 34.1424L36.5261 36.4802C34.6489 38.8351 31.9882 40.4616 29.0344 41.062C27.2706 41.4199 25.4893 41.41 23.738 41.0334C20.8899 40.4213 18.6774 38.1858 18.0993 35.3373C17.6791 33.2668 18.3183 31.1816 18.6563 30.2211C18.7533 29.9455 18.835 29.666 18.9023 29.3839C22.1035 28.6293 24.8213 26.4395 26.2476 23.4323C26.4389 23.029 26.296 22.5465 25.916 22.3124C23.3151 20.7104 20.1365 20.2692 17.1948 21.1014C16.8837 21.19 16.5527 21.0948 16.3291 20.855C14.311 18.6911 11.5709 17.4562 8.61394 17.378C8.16772 17.3661 7.78807 17.6927 7.72392 18.1346C7.03854 22.8526 9.64906 27.1725 13.1364 29.0943C11.6601 32.4926 11.2691 36.1965 12.0081 39.8606C12.9526 44.5444 15.7006 48.6018 19.7457 51.2857C23.8456 54.0058 28.733 54.9702 33.5077 54.0012L36.0847 53.4781C36.3963 54.1115 36.7787 54.7121 37.2279 55.2659C38.0557 56.2864 39.5478 56.0181 40.117 55.0141C40.6554 54.0645 41.0261 53.0246 41.2226 51.947C44.5603 50.4908 46.7854 48.4736 47.7761 47.4869C48.1186 47.1469 48.114 46.6017 47.7786 46.2499C47.506 45.964 46.9284 45.8545 46.5407 46.2476C45.0192 47.7631 43.2883 49.0021 41.3819 49.9439C41.3462 48.3131 40.9094 46.7344 40.1109 45.364C39.9316 45.0564 39.9554 44.6706 40.1716 44.3814C41.1328 43.0954 41.918 41.6855 42.5055 40.191C43.5228 37.6028 45.4708 35.4958 47.9909 34.2582C49.383 33.5744 50.851 33.0926 52.3668 32.8196C52.2925 35.3006 51.7498 37.7578 50.7594 40.0508C50.5679 40.4932 50.7689 41.0188 51.2151 41.201C51.7791 41.4314 52.2217 41.0735 52.3654 40.7453C54.4592 35.9628 54.2067 31.5987 53.975 29.699C53.8417 28.6059 52.8605 27.2902 51.1893 27.3923ZM35.4533 51.8207L33.1596 52.2862C29.8002 52.968 26.3778 52.5897 23.2761 51.2281C27.8012 52.2287 32.295 50.6962 35.0989 48.9898C35.0748 49.9505 35.1974 50.905 35.4533 51.8207ZM47.2195 32.6875C44.3068 34.1179 42.0542 36.5554 40.8769 39.5508C40.8215 39.6917 40.7631 39.8312 40.7038 39.9705L40.2478 39.7606C39.8088 39.5584 39.2892 39.7505 39.0871 40.1894C38.8849 40.6284 39.077 41.148 39.5159 41.3501L39.933 41.5422C39.5852 42.1636 39.197 42.7624 38.7699 43.3338C38.1324 44.1867 38.0653 45.3294 38.599 46.2451C39.9754 48.6072 39.9732 51.7114 38.5841 54.1602C37.2354 52.5041 36.6269 50.3279 36.9146 48.1895C37.0798 46.9623 36.7435 45.6919 35.9921 44.7039C35.6996 44.3194 35.1508 44.2446 34.766 44.5372C34.3814 44.8297 34.3068 45.3786 34.5993 45.7632C34.8531 46.0969 35.0308 46.4817 35.1258 46.8857C33.1656 48.2634 30.8945 49.201 28.5234 49.6062C21.9371 50.7316 15.6939 46.8128 13.9528 40.4894C12.8582 36.5146 13.4235 32.3188 15.0688 29.0832C15.2638 28.6998 15.1681 28.1432 14.6494 27.903C11.2473 26.3276 9.20017 22.8989 9.38244 19.1842C11.5523 19.4313 13.5408 20.4309 15.0494 22.0486C15.7224 22.7701 16.7267 23.0523 17.6713 22.7852C19.879 22.1599 22.2462 22.3896 24.2835 23.4051C23.1281 25.3693 21.2838 26.8333 19.1295 27.508C19.1331 26.9413 19.0679 26.0587 18.8273 25.2394C18.4993 24.1221 16.845 24.5849 17.1419 25.7109C17.5322 27.1911 17.4002 28.5189 17.0055 29.64C16.6208 30.7314 15.8766 33.1833 16.3843 35.6852C17.3002 40.1979 20.9953 42.2577 23.3699 42.7436C26.2273 43.3281 28.2971 42.9971 29.3858 42.7761C34.0753 41.8244 36.8088 38.9332 37.8947 37.5709L39.7574 35.2324C42.1375 32.2451 45.5127 30.1798 49.2598 29.4193C49.9372 29.2819 50.6295 29.1869 51.3167 29.1376C51.741 29.1033 52.1658 29.4083 52.2381 29.9077C52.293 30.2861 52.3167 30.6678 52.3396 31.0485C50.5635 31.3397 48.8446 31.8894 47.2195 32.6875ZM50.5253 43.6673C50.6214 44.1407 50.3155 44.6023 49.8421 44.6984C49.3688 44.7944 48.9071 44.4885 48.8111 44.0152C48.715 43.5419 49.0209 43.0802 49.4942 42.9841C49.9675 42.888 50.4292 43.1939 50.5253 43.6673Z" fill="#2E3239"/>
</svg>
