<svg width="64" height="64" viewBox="0 0 64 64" fill="none" xmlns="http://www.w3.org/2000/svg">
<path d="M30.4587 24H32.5467V12.498H36.4527V10.734H26.5707V12.498H30.4587V24ZM41.1188 24.234C43.5668 24.234 45.7808 22.344 45.7808 19.05C45.7808 15.756 43.5668 13.848 41.1188 13.848C38.6708 13.848 36.4568 15.756 36.4568 19.05C36.4568 22.344 38.6708 24.234 41.1188 24.234ZM41.1188 22.542C39.5708 22.542 38.5988 21.156 38.5988 19.05C38.5988 16.962 39.5708 15.558 41.1188 15.558C42.6848 15.558 43.6568 16.962 43.6568 19.05C43.6568 21.156 42.6848 22.542 41.1188 22.542ZM48.2154 28.014H50.2854V24.81L50.2134 23.118C51.0594 23.838 51.9414 24.234 52.8234 24.234C55.0554 24.234 57.0894 22.29 57.0894 18.888C57.0894 15.846 55.6854 13.848 53.1834 13.848C52.0674 13.848 50.9874 14.46 50.1234 15.18H50.0694L49.9074 14.1H48.2154V28.014ZM52.4274 22.524C51.8154 22.524 51.0594 22.29 50.2854 21.624V16.782C51.1134 15.972 51.8514 15.576 52.6254 15.576C54.2814 15.576 54.9474 16.854 54.9474 18.924C54.9474 21.246 53.8674 22.524 52.4274 22.524Z" fill="#00A1E9"/>
<path d="M17.9844 25.4748C18.3933 26.9357 18.3365 28.494 17.8308 29.93C17.4672 30.9621 17.2309 32.0227 17.1224 33.0936C16.7044 37.2209 19.4982 41.0146 23.5538 41.8878C28.4972 42.9522 33.8512 41.2404 37.21 37.0248L39.0729 34.6868C42.09 30.9 46.5263 28.6081 51.2528 28.2639C52.1805 28.1964 52.9964 28.8785 53.1064 29.802C54.2112 39.0745 48.8998 47.8894 40.4344 51.3298C38.0261 52.3086 33.3335 53.1429 33.3335 53.1429C24.031 55.0308 14.7422 48.9918 12.8656 39.6869C12.0851 35.8167 12.6682 31.9877 14.2833 28.697C10.3881 26.9031 7.98152 22.7239 8.59075 18.2519C11.4004 18.3262 13.9119 19.5453 15.6892 21.4511C16.1333 21.9273 16.8064 22.1199 17.433 21.9426C20.0508 21.2018 22.9589 21.5179 25.4571 23.0567C24.0103 26.1072 21.2396 28.098 18.1587 28.6438" fill="white"/>
<path d="M53.1068 29.8022C53.1866 30.4725 53.2328 31.1399 53.2468 31.803C51.2732 32.0375 49.3658 32.6077 47.6048 33.4722C44.9103 34.7957 42.7894 37.076 41.6914 39.8701C41.1401 41.2711 40.4002 42.614 39.4705 43.8571C39.045 44.4265 38.9972 45.1897 39.3548 45.8036C40.3287 47.4746 40.6802 49.4352 40.4344 51.3296C40.2869 52.4639 39.9256 53.5737 39.3555 54.5831C39.0513 55.1207 38.296 55.191 37.9061 54.713C37.351 54.032 36.9115 53.2784 36.5935 52.4814C36.0356 51.0921 35.8457 49.5709 36.0477 48.072C36.0835 47.8085 36.0903 47.5429 36.0708 47.2799C33.8558 48.9472 31.2926 50.02 28.6712 50.4681C21.7217 51.6553 14.9723 47.458 13.1053 40.7095C11.9146 36.406 12.6682 31.9883 14.2832 28.6974C10.3881 26.9033 7.98117 22.7243 8.59033 18.2519C11.4007 18.3261 13.9123 19.5457 15.689 21.451C16.1331 21.9278 16.8059 22.1198 17.4333 21.9425C20.0505 21.2015 22.9592 21.5183 25.457 23.0567C24.0102 26.1072 21.2395 28.098 18.1586 28.6438C17.9409 29.8003 17.2941 31.2967 17.1226 33.0939C16.7283 37.2238 19.4979 41.0147 23.5534 41.8879C28.4975 42.9522 33.8515 41.2407 37.2098 37.0246L39.0726 34.6868C42.0903 30.8997 46.5267 28.6084 51.2529 28.2643C52.1801 28.1966 52.9961 28.8783 53.1068 29.8022V29.8022Z" fill="#00A1E9"/>
<path d="M51.1893 27.3923C50.4268 27.4388 49.6612 27.5524 48.9118 27.7045C43.0819 28.8877 39.7131 32.4801 38.389 34.1424L36.5261 36.4802C34.6489 38.8351 31.9882 40.4616 29.0344 41.062C27.2706 41.4199 25.4893 41.41 23.738 41.0334C20.8899 40.4213 18.6774 38.1858 18.0993 35.3373C17.6791 33.2668 18.3183 31.1816 18.6563 30.2211C18.7533 29.9455 18.835 29.666 18.9023 29.3839C22.1035 28.6293 24.8213 26.4395 26.2476 23.4323C26.4389 23.029 26.296 22.5465 25.916 22.3124C23.3151 20.7104 20.1365 20.2692 17.1948 21.1014C16.8837 21.19 16.5527 21.0948 16.3291 20.855C14.311 18.6911 11.5709 17.4562 8.61394 17.378C8.16772 17.3661 7.78807 17.6927 7.72392 18.1346C7.03854 22.8526 9.64906 27.1725 13.1364 29.0943C11.6601 32.4926 11.2691 36.1965 12.0081 39.8606C12.9526 44.5444 15.7006 48.6018 19.7457 51.2857C23.8456 54.0058 28.733 54.9702 33.5077 54.0012L36.0847 53.4781C36.3963 54.1115 36.7787 54.7121 37.2279 55.2659C38.0557 56.2864 39.5478 56.0181 40.117 55.0141C40.6554 54.0645 41.0261 53.0246 41.2226 51.947C44.5603 50.4908 46.7854 48.4736 47.7761 47.4869C48.1186 47.1469 48.114 46.6017 47.7786 46.2499C47.506 45.964 46.9284 45.8545 46.5407 46.2476C45.0192 47.7631 43.2883 49.0021 41.3819 49.9439C41.3462 48.3131 40.9094 46.7344 40.1109 45.364C39.9316 45.0564 39.9554 44.6706 40.1716 44.3814C41.1328 43.0954 41.918 41.6855 42.5055 40.191C43.5228 37.6028 45.4708 35.4958 47.9909 34.2582C49.383 33.5744 50.851 33.0926 52.3668 32.8196C52.2925 35.3006 51.7498 37.7578 50.7594 40.0508C50.5679 40.4932 50.7689 41.0188 51.2151 41.201C51.7791 41.4314 52.2217 41.0735 52.3654 40.7453C54.4592 35.9628 54.2067 31.5987 53.975 29.699C53.8417 28.6059 52.8605 27.2902 51.1893 27.3923V27.3923ZM35.4533 51.8207L33.1596 52.2862C29.8002 52.968 26.3778 52.5897 23.2761 51.2281C27.8012 52.2287 32.295 50.6962 35.0989 48.9898C35.0748 49.9505 35.1974 50.905 35.4533 51.8207V51.8207ZM47.2195 32.6875C44.3068 34.1179 42.0542 36.5554 40.8769 39.5508C40.8215 39.6917 40.7631 39.8312 40.7038 39.9705L40.2478 39.7606C39.8088 39.5584 39.2892 39.7505 39.0871 40.1894C38.8849 40.6284 39.077 41.148 39.5159 41.3501L39.933 41.5422C39.5852 42.1636 39.197 42.7624 38.7699 43.3338C38.1324 44.1867 38.0653 45.3294 38.599 46.2451C39.9754 48.6072 39.9733 51.7114 38.5841 54.1602C37.2354 52.5041 36.6269 50.3279 36.9146 48.1895C37.0798 46.9623 36.7435 45.6919 35.9921 44.7039C35.6996 44.3194 35.1508 44.2446 34.766 44.5372C34.3814 44.8297 34.3068 45.3786 34.5993 45.7632C34.8531 46.0969 35.0308 46.4817 35.1258 46.8857C33.1656 48.2634 30.8945 49.201 28.5234 49.6062C21.9371 50.7316 15.6939 46.8128 13.9528 40.4894C12.8582 36.5146 13.4235 32.3188 15.0688 29.0832C15.2638 28.6998 15.1681 28.1432 14.6494 27.903C11.2473 26.3276 9.20017 22.8989 9.38244 19.1842C11.5523 19.4313 13.5408 20.4309 15.0494 22.0486C15.7224 22.7701 16.7267 23.0523 17.6713 22.7852C19.879 22.1599 22.2462 22.3896 24.2835 23.4051C23.1281 25.3693 21.2838 26.8333 19.1295 27.508C19.1331 26.9413 19.0679 26.0587 18.8273 25.2394C18.4993 24.1221 16.845 24.5849 17.1419 25.7109C17.5322 27.1911 17.4002 28.5189 17.0055 29.64C16.6208 30.7314 15.8766 33.1833 16.3843 35.6852C17.3002 40.1979 20.9953 42.2577 23.3699 42.7436C26.2273 43.3281 28.2971 42.9971 29.3858 42.7761C34.0753 41.8244 36.8088 38.9332 37.8947 37.5709L39.7574 35.2324C42.1375 32.2451 45.5127 30.1798 49.2598 29.4193C49.9372 29.2819 50.6295 29.1869 51.3167 29.1376C51.741 29.1033 52.1658 29.4083 52.2381 29.9077C52.293 30.2861 52.3167 30.6678 52.3396 31.0485C50.5635 31.3397 48.8446 31.8894 47.2195 32.6875V32.6875ZM50.5253 43.6673C50.6214 44.1407 50.3155 44.6023 49.8421 44.6983C49.3688 44.7944 48.9071 44.4885 48.8111 44.0152C48.715 43.5419 49.0209 43.0802 49.4942 42.9841C49.9675 42.888 50.4292 43.1939 50.5253 43.6673Z" fill="#2E3239"/>
</svg>
