<svg width="80" height="80" viewBox="0 0 80 80" fill="none" xmlns="http://www.w3.org/2000/svg">
<path d="M32.0787 31.5595C31.3367 31.5595 30.5998 31.327 29.9698 30.8694C28.8552 30.0594 28.3073 28.7127 28.5403 27.3547L29.7331 20.4L24.6803 15.4747C23.6937 14.513 23.3452 13.1016 23.7709 11.7911C24.1967 10.4805 25.3083 9.54344 26.6719 9.34547L33.6547 8.33078L36.7775 2.00328C37.3873 0.7675 38.6222 0 40 0C41.3778 0 42.6126 0.7675 43.2225 2.00312L46.3453 8.33063L53.3283 9.34531C54.6917 9.54344 55.8033 10.4805 56.2291 11.7909C56.6548 13.1014 56.3064 14.5128 55.3197 15.4745L50.2669 20.3998L51.4597 27.3545C51.6926 28.7125 51.1448 30.0594 50.0301 30.8692C48.9153 31.6792 47.4655 31.7837 46.2458 31.1428L40 27.8594L33.7542 31.1431C33.2239 31.4219 32.6498 31.5595 32.0787 31.5595Z" fill="white"/>
<path d="M19.6005 38.0886C19.0734 38.0886 18.5439 37.9616 18.0544 37.7042L13.4389 35.2777L8.82344 37.7042C7.69813 38.2956 6.36 38.1989 5.33157 37.4519C4.30297 36.7045 3.7975 35.462 4.0125 34.2089L4.89407 29.0694L1.16 25.4297C0.249691 24.5423 -0.071871 23.24 0.320942 22.0309C0.713754 20.8219 1.73922 19.957 2.99735 19.7741L8.15782 19.0242L10.4655 14.3483C11.0283 13.2081 12.1675 12.5 13.4389 12.5C14.7103 12.5 15.8495 13.2081 16.4122 14.3483L18.7198 19.0242L23.88 19.7741C25.1384 19.957 26.1641 20.8219 26.5567 22.0309C26.9494 23.24 26.628 24.5423 25.7177 25.4297L21.9838 29.0694L22.8653 34.2088C23.0802 35.462 22.5748 36.7045 21.5463 37.4519C20.9652 37.8741 20.285 38.0886 19.6005 38.0886Z" fill="white"/>
<path d="M72.7226 38.0886C72.1956 38.0886 71.6661 37.9616 71.1765 37.7042L66.5611 35.2777L61.9456 37.7042C60.8203 38.2956 59.4822 38.1989 58.4537 37.4519C57.4251 36.7045 56.9197 35.462 57.1347 34.2089L58.0162 29.0694L54.2823 25.4297C53.372 24.5423 53.0505 23.24 53.4433 22.0309C53.8361 20.8219 54.8616 19.957 56.1197 19.7741L61.2801 19.0242L63.5878 14.3483C64.1505 13.2081 65.2897 12.5 66.5611 12.5C67.8325 12.5 68.9717 13.2081 69.5344 14.3483L71.8422 19.0242L77.0023 19.7741C78.2608 19.957 79.2864 20.8219 79.679 22.0309C80.0719 23.24 79.7503 24.5423 78.84 25.4297L75.1061 29.0694L75.9876 34.2088C76.2025 35.462 75.6972 36.7045 74.6686 37.4519C74.0872 37.8741 73.4072 38.0886 72.7226 38.0886Z" fill="white"/>
<path d="M20.2828 64.2417C18.0609 66.2648 15.1095 67.5 11.875 67.5C8.64047 67.5 5.68906 66.2648 3.46719 64.2417C1.465 65.6562 0.15625 67.987 0.15625 70.625V77.6562C0.15625 78.9506 1.20562 80 2.5 80H21.25C22.5444 80 23.5938 78.9506 23.5938 77.6562V70.625C23.5938 67.987 22.285 65.6562 20.2828 64.2417Z" fill="white"/>
<path d="M11.875 62.8125C7.56719 62.8125 4.0625 59.3078 4.0625 55C4.0625 50.6922 7.56719 47.1875 11.875 47.1875C16.1828 47.1875 19.6875 50.6922 19.6875 55C19.6875 59.3078 16.1828 62.8125 11.875 62.8125Z" fill="white"/>
<path d="M76.5328 64.2417C74.3109 66.2648 71.3595 67.5 68.125 67.5C64.8905 67.5 61.9391 66.2648 59.7172 64.2417C57.715 65.6562 56.4062 67.987 56.4062 70.625V77.6562C56.4062 78.9506 57.4556 80 58.75 80H77.5C78.7944 80 79.8438 78.9506 79.8438 77.6562V70.625C79.8438 67.987 78.535 65.6562 76.5328 64.2417Z" fill="white"/>
<path d="M68.125 62.8125C63.8172 62.8125 60.3125 59.3078 60.3125 55C60.3125 50.6922 63.8172 47.1875 68.125 47.1875C72.4328 47.1875 75.9375 50.6922 75.9375 55C75.9375 59.3078 72.4328 62.8125 68.125 62.8125Z" fill="white"/>
<path d="M48.4078 64.2417C46.1859 66.2648 43.2345 67.5 40 67.5C36.7655 67.5 33.8141 66.2648 31.5922 64.2417C29.59 65.6562 28.2812 67.987 28.2812 70.625V77.6562C28.2812 78.9506 29.3306 80 30.625 80H49.375C50.6694 80 51.7188 78.9506 51.7188 77.6562V70.625C51.7188 67.987 50.41 65.6562 48.4078 64.2417Z" fill="white"/>
<path d="M40 62.8125C35.6922 62.8125 32.1875 59.3078 32.1875 55C32.1875 50.6922 35.6922 47.1875 40 47.1875C44.3078 47.1875 47.8125 50.6922 47.8125 55C47.8125 59.3078 44.3078 62.8125 40 62.8125Z" fill="white"/>
</svg>
