<svg width="40" height="40" viewBox="0 0 40 40" fill="none" xmlns="http://www.w3.org/2000/svg">
<path d="M40 20C40 31.0467 31.0467 40 20 40C8.95333 40 0 31.0467 0 20C0 8.95333 8.95333 0 20 0C31.0467 0 40 8.95333 40 20Z" fill="#2AAC38"/>
<path d="M33.3034 18.7999C33.3034 12.8466 27.3367 8.00323 20 8.00323C12.6667 8.00323 6.69669 12.8466 6.69669 18.7999C6.69669 24.1366 11.43 28.6066 17.8234 29.4499C18.2567 29.5432 18.8467 29.7366 18.9967 30.1066C19.13 30.4432 19.0834 30.9699 19.04 31.3099C19.04 31.3099 18.8834 32.2499 18.8501 32.4499C18.7934 32.7866 18.5834 33.7666 20.0034 33.1666C21.4234 32.5666 27.6634 28.6566 30.4567 25.4432C32.38 23.3266 33.3034 21.1799 33.3034 18.7999Z" fill="white"/>
<path d="M17.2967 15.9233H16.3634C16.22 15.9233 16.1033 16.04 16.1033 16.1833V21.98C16.1033 22.1233 16.22 22.2367 16.3634 22.2367H17.2967C17.44 22.2367 17.5567 22.12 17.5567 21.98V16.18C17.5567 16.04 17.44 15.9233 17.2967 15.9233Z" fill="#2AAC38"/>
<path d="M23.7201 15.9233H22.7867C22.6434 15.9233 22.5267 16.04 22.5267 16.1833V19.6267L19.87 16.04C19.8634 16.03 19.8567 16.0233 19.8501 16.0133C19.8501 16.0133 19.8501 16.0133 19.8467 16.01C19.8401 16.0033 19.8367 16 19.83 15.9933C19.8267 15.9933 19.8267 15.99 19.8234 15.99C19.82 15.9867 19.8134 15.9833 19.8101 15.98C19.8067 15.9767 19.8067 15.9767 19.8034 15.9733C19.8001 15.97 19.7934 15.9667 19.79 15.9633C19.7867 15.96 19.7867 15.96 19.7834 15.96C19.78 15.9567 19.7734 15.9533 19.77 15.9533C19.7667 15.9533 19.7634 15.95 19.7634 15.95C19.7567 15.9467 19.7534 15.9467 19.75 15.9433C19.7467 15.9433 19.7434 15.94 19.74 15.94C19.7334 15.9367 19.7301 15.9367 19.7234 15.9367C19.7201 15.9367 19.7167 15.9367 19.7134 15.9333C19.7067 15.9333 19.7034 15.93 19.6967 15.93C19.6934 15.93 19.69 15.93 19.6867 15.93C19.6834 15.93 19.6767 15.93 19.6734 15.93C19.67 15.93 19.6634 15.93 19.66 15.93C19.6567 15.93 19.6534 15.93 19.65 15.93H18.7167C18.5734 15.93 18.4567 16.0467 18.4567 16.19V21.9867C18.4567 22.13 18.5734 22.2433 18.7167 22.2433H19.65C19.7934 22.2433 19.91 22.1267 19.91 21.9867V18.5367L22.57 22.1267C22.59 22.1533 22.6101 22.1733 22.6367 22.19C22.6367 22.19 22.6401 22.19 22.6401 22.1933C22.6467 22.1967 22.65 22.2 22.6567 22.2033C22.66 22.2033 22.6634 22.2067 22.6634 22.2067C22.6667 22.2067 22.6701 22.21 22.6767 22.2133C22.6801 22.2167 22.6834 22.2167 22.69 22.22C22.6934 22.22 22.6967 22.2233 22.6967 22.2233C22.7034 22.2233 22.71 22.2267 22.7134 22.23H22.7167C22.7367 22.2367 22.76 22.24 22.7834 22.24H23.7167C23.86 22.24 23.9767 22.1233 23.9767 21.9833V16.18C23.9801 16.04 23.8634 15.9233 23.7201 15.9233Z" fill="#2AAC38"/>
<path d="M15.0467 20.7833H12.5101V16.1799C12.5101 16.0366 12.3934 15.9199 12.25 15.9199H11.3167C11.1734 15.9199 11.0567 16.0366 11.0567 16.1799V21.9766C11.0567 22.0466 11.0834 22.1099 11.13 22.1566L11.1334 22.1599L11.1367 22.1633C11.1834 22.2066 11.2467 22.2366 11.3167 22.2366H15.0434C15.1867 22.2366 15.3034 22.1199 15.3034 21.9766V21.0433C15.3067 20.8999 15.19 20.7833 15.0467 20.7833Z" fill="#2AAC38"/>
<path d="M28.8734 17.3733C29.0167 17.3733 29.1334 17.2566 29.1334 17.1133V16.1799C29.1334 16.0366 29.0167 15.9199 28.8734 15.9199H25.1467C25.0767 15.9199 25.0134 15.9466 24.9667 15.9933C24.9667 15.9933 24.9667 15.9966 24.9634 15.9966C24.96 15.9999 24.96 15.9999 24.96 15.9999C24.9167 16.0466 24.8867 16.1099 24.8867 16.1799V21.9766C24.8867 22.0466 24.9134 22.1099 24.96 22.1566L24.9634 22.1599L24.9667 22.1633C25.0134 22.2066 25.0767 22.2366 25.1467 22.2366H28.8734C29.0167 22.2366 29.1334 22.1199 29.1334 21.9766V21.0433C29.1334 20.8999 29.0167 20.7833 28.8734 20.7833H26.3367V19.8033H28.8734C29.0167 19.8033 29.1334 19.6866 29.1334 19.5433V18.6099C29.1334 18.4666 29.0167 18.3499 28.8734 18.3499H26.3367V17.3699H28.8734V17.3733Z" fill="#2AAC38"/>
</svg>
