<svg width="158" height="88" viewBox="0 0 158 88" fill="none" xmlns="http://www.w3.org/2000/svg">
<g clip-path="url(#clip0)">
<path d="M25.5469 14.8459C26.8846 15.0515 28.6539 15.6685 29.4307 15.7919C29.6896 15.7919 30.2075 16.1209 30.2075 17.2725C30.2075 18.3007 30.4664 20.4394 30.5527 21.5088C30.5958 22.537 30.2075 23.1128 29.7759 23.1128C29.517 23.1128 29.2149 22.5781 28.956 21.8378C28.4813 20.1515 27.5319 18.6709 26.8415 18.1773C24.0365 16.162 21.4041 15.6274 18.6423 15.6274C10.4432 15.6274 5.17842 22.1257 5.17842 29.4467C5.17842 32.6958 5.82573 35.3281 6.94772 37.4668C9.79585 43.0603 15.751 45.2813 19.8938 45.2813C20.8863 45.2813 23.3892 45.1168 25.4606 43.9651C27.7046 42.8547 28.9992 41.2918 30.2075 39.2353C30.8548 38.2071 31.0705 37.9603 31.2863 37.9603C31.8041 37.9603 31.8473 39.0297 31.761 39.5644C31.5884 40.7982 30.4232 43.3482 29.7328 44.4998C29.517 44.9522 28.6539 45.5281 28.1361 45.7748C27.3162 46.1039 23.1734 47.1321 18.8149 47.1321C11.6083 47.1321 6.34357 43.7184 4.31535 41.4152C2.37344 39.2765 0 35.7805 0 30.2281C0 24.6757 3.49544 20.2338 5.60996 18.5475C10.0116 15.1338 14.7585 14.0645 19.4622 14.0645C21.3178 14.0645 23.605 14.3935 25.5469 14.8459Z" fill="#036EB8"/>
<path d="M48.3319 28.5006C49.4539 29.5288 50.1012 30.886 50.1012 32.6135C50.1012 32.9014 49.7129 33.436 49.1087 33.436C48.5477 33.436 39.7875 33.436 37.4573 33.3949C37.2846 33.3949 37.112 33.6417 37.0689 33.7651C36.8963 34.1352 36.81 34.9989 36.81 35.4514C36.81 37.3433 37.6299 39.6054 38.7519 41.0038C39.8739 42.4844 42.0315 43.6771 44.4913 43.6771C46.7353 43.6771 48.2888 43.1425 49.1519 41.9086C49.3676 41.6207 49.6266 41.3328 49.7992 41.3328C50.1012 41.3328 50.1875 41.6618 50.1875 41.9086C50.1875 42.2788 49.9718 42.8546 49.8423 43.0602C48.073 45.5279 45.3544 46.7207 42.4199 46.7207C36.8963 46.7207 33.2282 42.7312 33.2282 37.0143C33.2282 33.107 35.3859 29.1998 39.356 27.4724C40.6938 26.8965 42.3768 26.6086 43.2398 26.6086C45.0523 26.6498 47.0805 27.2667 48.3319 28.5006ZM37.5867 31.503C37.5004 31.7498 37.673 32.0377 37.8025 32.0377C39.1402 32.0788 41.8589 32.0788 44.405 32.0377C45.6133 32.0377 46.1311 31.7909 46.1311 30.8038C46.1311 29.4465 44.5776 27.8836 42.7651 27.8836C40.478 27.9248 38.5361 29.282 37.5867 31.503Z" fill="#036EB8"/>
<path d="M63.7378 27.0611C63.7809 27.0611 64.2987 27.3079 64.2987 27.4313C64.2987 27.2668 64.4714 28.6651 64.4714 29.2821C64.4714 29.7345 63.4788 29.8167 63.1336 29.8167C62.9178 29.8167 58.1278 29.8167 57.5668 29.8167C57.3079 29.8167 57.0921 30.0635 57.0921 30.1458C57.049 31.1329 57.0058 38.2893 57.0058 40.6336C57.0058 41.8675 57.3079 42.4844 57.8689 43.0191C58.8614 43.8417 59.8971 43.9651 60.9759 43.9651C61.6232 43.9651 62.7021 43.6772 63.4788 43.2248C63.9535 42.978 64.0398 42.9368 64.2556 42.9368C64.2987 42.9368 64.5577 43.0191 64.5577 43.4715C64.5577 43.8417 64.2124 44.3352 63.8241 44.7054C62.4431 45.9804 60.6738 46.8441 58.3436 46.8441C56.229 46.8441 54.4597 45.6102 53.8556 44.5409C53.2946 43.7183 53.2083 42.6901 53.2083 41.3328C53.2083 39.5232 53.4241 32.2022 53.4241 30.5159C53.4241 30.1869 52.5178 29.8167 51.4821 29.5288C51.0938 29.3643 50.7485 29.1587 50.7485 28.9942C50.7485 28.7885 50.9212 28.624 51.0506 28.4595C52.8199 27.1022 54.4166 25.9095 55.1502 25.0869C55.7543 24.3877 56.1427 24.0176 56.3153 24.0176C56.5743 24.0176 57.049 24.47 57.049 24.5523C57.049 24.7579 57.049 25.416 57.049 26.8555C57.049 27.02 57.2647 27.2256 57.4373 27.2256C58.5593 27.2668 63.522 27.0611 63.7378 27.0611Z" fill="#036EB8"/>
<path d="M79.4025 42.7312C79.7046 42.4844 80.1793 41.7441 80.1793 41.5796L80.2656 30.3925C80.2656 30.1046 79.7046 29.4054 79.4025 29.3232C78.6257 29.1175 77.5038 28.8296 77.0722 28.7474C76.727 28.6651 76.0365 28.3772 76.0365 27.9659C76.0365 27.7603 76.6838 27.5135 77.2017 27.5135C79.2299 27.5135 81.517 27.2667 82.6822 26.9788C83.2 26.8143 83.5452 26.7732 83.8905 26.7732C84.1494 26.7732 84.2357 27.3079 84.2357 27.5135C84.1494 28.8708 83.7179 39.6877 83.7179 43.6772C83.7179 43.7594 83.9336 44.3764 84.322 44.3764C84.6672 44.3764 86.2639 44.1296 86.8681 44.1296C87.0838 44.1296 87.4291 44.911 87.4722 45.0755C87.4722 45.2401 87.127 45.5691 86.9112 45.5691C85.5735 45.6513 83.4158 46.186 82.2506 46.5151C81.3876 46.7618 80.5676 46.9675 80.4813 46.9675C80.2656 46.9675 79.9635 46.6384 79.9635 46.2683C79.9635 45.9804 80.1361 45.0344 80.1793 44.2118C80.1793 43.9651 80.0067 43.8417 79.9203 43.8828C78.4531 44.8699 76.3818 46.1038 75.7345 46.3505C74.8714 46.6796 73.7494 46.9263 72.3253 46.9263C70.4697 46.9263 68.8299 46.1449 67.8374 44.6231C67.4921 44.0884 67.1037 43.1014 67.1037 42.3199C67.1037 38.824 67.1037 33.3127 67.0174 30.7216C66.9743 29.3643 65.9818 29.1587 65.1187 28.8296C64.644 28.624 64.2125 28.3772 64.2125 27.9659C64.2125 27.8014 64.4714 27.5135 65.0755 27.5135C66.4996 27.5135 70.2971 26.9788 70.5129 26.9788C70.7286 26.9788 70.9013 27.4313 70.9013 27.7192C70.9444 29.3643 70.7286 38.5772 70.7286 40.757C70.7286 41.8675 71.2896 42.978 72.0232 43.4715C73.361 44.4586 74.2672 44.4586 75.5187 44.4586C76.7701 44.4586 78.1511 43.8005 79.4025 42.7312Z" fill="#036EB8"/>
<path d="M97.9154 26.8967C98.4764 26.9789 99.4689 27.3902 99.5552 27.4313C99.6415 27.4725 99.9436 27.8015 99.9436 28.1305C99.9436 28.9942 100.116 30.6805 100.116 31.0095C100.116 31.462 99.9004 31.8733 99.512 31.8733C99.2963 31.8733 98.9942 31.5854 98.7353 31.0507C97.6133 28.7475 96.3187 27.8015 94.6357 27.8015C92.5212 27.8015 91.5718 29.8168 91.5718 30.8039C91.5718 32.4491 93.2116 33.7241 96.6208 35.5337C99.4689 37.1378 100.591 38.7829 100.591 41.0039C100.591 43.2248 98.9079 44.9111 97.6133 45.7748C96.7071 46.3506 94.8946 46.8853 93.2979 46.8853C91.7444 46.8853 89.1983 46.5151 88.3353 45.8159C88.1627 45.5692 87.5585 43.5127 87.5585 42.1143C87.5585 41.5797 87.6448 41.0861 87.9469 41.0861C88.3353 41.0861 88.7237 41.6619 89.0257 42.1966C90.4498 44.6643 91.8307 45.6514 93.6863 45.6514C94.3336 45.6514 95.1535 45.3224 95.7145 44.9111C96.4913 44.3353 96.8797 43.1426 96.8797 42.2377C96.8797 40.9216 96.1461 39.8934 94.5925 38.9886C93.3842 38.166 93.039 37.9192 91.4855 36.9321C89.932 35.9861 88.3353 34.2999 88.3353 31.9966C88.3353 30.3515 89.1983 28.7475 91.1402 27.5958C92.1328 27.02 93.4705 26.5676 95.2398 26.5676C96.2755 26.6088 97.3544 26.7321 97.9154 26.8967Z" fill="#036EB8"/>
<path d="M114.4 27.0611C114.443 27.0611 114.961 27.3079 114.961 27.4313C114.961 27.2668 115.134 28.6651 115.134 29.2821C115.134 29.7345 114.141 29.8167 113.796 29.8167C113.58 29.8167 108.79 29.8167 108.229 29.8167C107.97 29.8167 107.754 30.0635 107.754 30.1458C107.711 31.1329 107.668 38.2893 107.668 40.6336C107.668 41.8675 107.97 42.4844 108.531 43.0191C109.524 43.8417 110.559 43.9651 111.638 43.9651C112.285 43.9651 113.364 43.6772 114.141 43.2248C114.616 42.978 114.702 42.9368 114.918 42.9368C114.961 42.9368 115.22 43.0191 115.22 43.4715C115.22 43.8417 114.875 44.3352 114.486 44.7054C113.105 45.9804 111.336 46.8441 109.006 46.8441C106.891 46.8441 105.122 45.6102 104.518 44.5409C103.957 43.7183 103.871 42.6901 103.871 41.3328C103.871 39.5232 104.086 32.2022 104.086 30.5159C104.086 30.1869 103.18 29.8167 102.144 29.5288C101.756 29.3643 101.411 29.1587 101.411 28.9942C101.411 28.7885 101.583 28.624 101.713 28.4595C103.482 27.1022 105.079 25.9095 105.812 25.0869C106.417 24.3877 106.805 24.0176 106.978 24.0176C107.237 24.0176 107.711 24.47 107.711 24.5523C107.711 24.7579 107.711 25.416 107.711 26.8555C107.711 27.02 107.927 27.2256 108.1 27.2256C109.222 27.2668 114.184 27.0611 114.4 27.0611Z" fill="#036EB8"/>
<path d="M130.367 28.5006C131.489 29.5288 132.136 30.886 132.136 32.6135C132.136 32.9014 131.748 33.436 131.144 33.436C130.583 33.436 121.822 33.436 119.492 33.3949C119.319 33.3949 119.147 33.6417 119.104 33.7651C118.931 34.1352 118.845 34.9989 118.845 35.4514C118.845 37.3433 119.665 39.6054 120.787 41.0038C121.909 42.4844 124.066 43.6771 126.526 43.6771C128.77 43.6771 130.324 43.1425 131.187 41.9086C131.402 41.6207 131.661 41.3328 131.834 41.3328C132.136 41.3328 132.222 41.6618 132.222 41.9086C132.222 42.2788 132.007 42.8546 131.877 43.0602C130.108 45.5279 127.389 46.7207 124.455 46.7207C118.931 46.7207 115.263 42.7312 115.263 37.0143C115.263 33.107 117.421 29.1998 121.391 27.4724C122.729 26.8965 124.412 26.6086 125.275 26.6086C127.13 26.6498 129.115 27.2667 130.367 28.5006ZM119.665 31.503C119.578 31.7498 119.751 32.0377 119.88 32.0377C121.218 32.0788 123.937 32.0788 126.483 32.0377C127.691 32.0377 128.209 31.7909 128.209 30.8038C128.209 29.4465 126.656 27.8836 124.843 27.8836C122.513 27.9248 120.571 29.282 119.665 31.503Z" fill="#036EB8"/>
<path d="M146.895 27.2668C150.261 27.2668 152.073 26.691 153.799 26.691C154.015 26.691 154.144 26.8966 154.144 27.02C154.144 27.5958 153.324 28.0482 153.109 28.0894C150.347 28.6652 149.484 29.1587 147.197 30.6805C145.643 31.7498 143.27 34.053 143.054 34.3821C142.968 34.5877 142.968 34.7522 143.011 34.8756C144.737 36.9321 149.656 41.9909 151.253 43.5127C152.159 44.3353 153.109 44.9111 154.749 45.2812C155.612 45.4869 155.957 45.857 155.957 46.0627C155.957 46.5562 155.31 46.6385 154.662 46.6385C153.497 46.6385 150.951 46.3506 148.276 46.3506H145.988C145.255 46.3506 144.694 46.1449 144.694 45.7337C144.694 45.4457 145.168 45.199 145.816 45.0345C146.895 44.7877 147.024 44.3353 146.463 43.6772C145.902 42.978 143.227 40.3046 140.68 37.5079C140.163 36.9321 139.645 36.3974 139.386 36.3974C139.17 36.3974 139.127 36.6853 139.127 36.7676C138.868 37.3845 138.868 42.0732 139.17 43.5538C139.343 44.5409 139.688 44.8288 141.069 45.1578C141.673 45.3224 142.191 45.4869 142.191 45.8982C142.191 46.3506 141.544 46.4328 140.983 46.4328C139.688 46.4328 138.005 46.3506 136.754 46.3506C134.984 46.3506 133.603 46.5562 132.438 46.5562C131.834 46.5562 131.273 46.3917 131.273 46.0215C131.273 45.6925 131.791 45.4869 132.438 45.2812C134.466 44.7877 134.855 44.3353 135.114 43.1425C135.329 42.1966 135.459 32.9014 135.459 26.4442C135.459 20.1515 135.286 17.437 135.157 16.162C135.157 15.9975 135.071 15.7096 133.603 14.887C133.215 14.5991 132.956 14.3523 132.956 14.1878C132.956 13.9822 133.215 13.6943 133.603 13.5709C134.121 13.4064 136.667 12.8717 138.048 12.0491C138.566 11.7612 138.825 11.5967 139.084 11.5967C139.17 11.5967 139.472 12.0491 139.429 12.2136C139.17 13.3652 138.954 25.9507 138.954 30.1458C138.954 32.0377 138.954 34.6289 139.127 35.0813C139.213 35.3692 139.3 35.5337 139.515 35.5337C139.774 35.5337 140.163 35.2047 140.551 34.9168C142.234 33.395 145.039 30.9273 145.988 29.6523C146.204 29.4055 146.334 28.9119 144.046 28.5829C143.744 28.5418 143.572 28.3773 143.572 28.2539C143.572 28.0482 144.09 27.3902 144.435 27.3902H146.895V27.2668Z" fill="#036EB8"/>
<path d="M128.641 6.12659C128.641 6.12659 127.562 2.63063 126.181 2.5895C124.8 2.54837 121.693 1.93144 126.095 0.286286C130.496 -1.4 130.41 4.89272 130.41 5.38627C130.367 5.87981 128.641 6.12659 128.641 6.12659Z" fill="#00A0E9"/>
<path d="M121.044 18.5475C121.044 18.5475 123.073 15.5863 124.41 14.8048C125.748 14.0234 130.668 12.1726 130.668 12.1726C130.668 12.1726 138.047 8.88227 138.78 8.51211C139.514 8.14195 140.722 7.6484 141.542 6.90808C142.362 6.16776 143.053 5.75647 142.362 5.01615C141.672 4.27583 141.542 3.82341 140.852 4.07019C140.118 4.27583 139.083 5.34518 135.112 4.11132C129.589 2.3839 124.324 4.35809 120.483 7.85404C117.463 10.5685 114.14 17.9306 114.14 17.9306L121.044 18.5475Z" fill="#00A0E9"/>
<path d="M134.639 8.55314C134.639 8.67653 134.682 8.75879 134.812 8.79992C134.941 8.84105 135.027 8.75879 135.071 8.6354C135.071 8.51202 135.027 8.38863 134.898 8.38863C134.768 8.3475 134.682 8.42976 134.639 8.55314Z" fill="white"/>
<path d="M141.673 4.60483C141.673 4.60483 141.759 5.83869 140.033 6.37337C138.264 6.90804 138.264 7.77175 135.761 7.31933C133.258 6.86691 131.748 6.29111 129.115 7.56611C126.483 8.8411 120.053 11.0621 118.068 15.7508C118.715 13.1596 121.002 8.88223 131.963 6.12659C131.963 6.12659 137.185 8.2653 138.739 6.49675C141.759 3.04193 141.673 4.60483 141.673 4.60483Z" fill="white"/>
<path d="M137.185 4.76939C134.768 4.60487 135.329 3.65891 129.633 3.86455C117.723 5.38632 114.055 17.5193 114.055 17.5193L115.565 17.725C115.565 17.725 116.299 14.6403 117.852 12.9129C119.406 11.1855 122.815 5.30406 132.093 6.53793C141.414 7.77179 141.328 4.23471 141.328 4.23471C141.328 4.23471 139.602 4.9339 137.185 4.76939Z" fill="white"/>
<path d="M135.329 5.71526C135.329 5.71526 128.554 3.94672 123.937 6.49671C126.742 4.68704 131.402 3.98785 135.329 5.71526Z" fill="#00A0E9"/>
<path d="M133.301 6.16779C133.301 6.16779 126.397 4.93392 121.995 7.85407C124.671 5.83876 129.245 4.76941 133.301 6.16779Z" fill="#00A0E9"/>
<path d="M124.757 11.679C124.757 11.679 116.385 9.49915 113.364 9.74592C110.344 9.9927 116.601 5.92094 119.233 6.90803C121.866 7.89513 126.224 9.21125 126.526 9.66367C126.871 10.075 124.757 11.679 124.757 11.679Z" fill="#00A0E9"/>
<path d="M115.004 13.0774C115.004 13.0774 100.677 10.8565 86.9112 14.229C73.1452 17.6016 60.9328 27.0201 60.9328 27.0201C60.9328 27.0201 83.6315 -0.248326 115.004 13.0774Z" fill="#00A0E9"/>
<path d="M135.632 23.4419C135.632 23.4419 120.01 17.8073 104.173 17.3549C88.3353 16.9024 73.2747 22.3315 73.2747 22.3315C73.2747 22.3315 102.705 3.37103 135.632 23.4419Z" fill="#00A0E9"/>
<path d="M0 51.1628H156" stroke="#036EB8"/>
<path d="M17.8863 59.1304H14.2623C14.0285 58.5243 13.6388 57.6612 13.3271 57L12.0216 57.3306C12.2749 57.8815 12.5672 58.5611 12.7815 59.1304H8.35864V60.3609H17.8863V59.1304ZM5.2412 59.6997C4.96842 60.3792 4.57874 61.1139 4.24751 61.6648H2.22118C2.61086 61.022 2.9226 60.3609 3.19538 59.6997H5.2412ZM6.52714 64.6584H4.92945V62.7851H6.52714V64.6584ZM6.52714 67.6152H4.92945V65.7236H6.52714V67.6152ZM2.37705 64.6584V62.7851H3.87732V64.6584H2.37705ZM3.87732 65.7236V67.6152H2.37705V65.7236H3.87732ZM1.22749 68.7355H7.73515V61.6648H5.51397C6.02056 60.8751 6.52714 59.9201 6.91682 59.0386L6.07901 58.5427L5.82572 58.5978H3.62402C3.7799 58.1387 3.93577 57.6612 4.07216 57.2204L2.84466 57.0551C2.39653 58.7814 1.48078 61.0404 0 62.7484C0.311744 62.8769 0.740392 63.2259 0.954716 63.4463C1.05214 63.3361 1.13007 63.2443 1.22749 63.1341V68.7355ZM1.16904 73.7493C1.77304 72.7392 2.20169 71.0679 2.49395 69.9109L1.4613 69.562C1.20801 70.7374 0.701424 72.3535 0.09742 73.3269L1.16904 73.7493ZM3.17589 69.8558C3.2928 70.9394 3.4097 72.3352 3.39022 73.2718L4.44235 73.1065C4.42287 72.1882 4.32545 70.8108 4.16958 69.7273L3.17589 69.8558ZM4.92945 69.7824C5.2412 70.7741 5.59191 72.0597 5.70881 72.9045L6.68301 72.6474C6.56611 71.8209 6.2154 70.5537 5.86468 69.562L4.92945 69.7824ZM6.66353 69.562C7.07269 70.3517 7.46237 71.4169 7.63773 72.1148L8.59244 71.7475C8.43657 71.0679 7.98844 70.0211 7.55979 69.2314L6.66353 69.562ZM10.4434 68.0376C9.95633 69.3599 9.27438 70.8659 8.61193 71.9127C8.90419 72.0413 9.44974 72.3719 9.70303 72.5555C10.346 71.472 11.1254 69.8007 11.6514 68.3682L10.4434 68.0376ZM10.4629 63.1341H15.8989V65.8154H10.4629V63.1341ZM17.2433 67.0459V61.9219H9.17696V67.0459H12.6451V72.1882C12.6451 72.4086 12.5867 72.4637 12.3139 72.4821C12.0801 72.4821 11.2033 72.4821 10.2681 72.4637C10.4434 72.8127 10.6577 73.3085 10.7162 73.6758C12.0216 73.6758 12.8205 73.6575 13.3271 73.4371C13.8726 73.2534 14.009 72.9045 14.009 72.2066V67.0459H17.2433ZM15.0222 68.4049C15.6846 69.6722 16.5029 71.3801 16.8537 72.4821L18.0422 72.0229C17.6915 70.9761 16.8731 69.3049 16.1717 68.0193L15.0222 68.4049Z" fill="#535B66"/>
<path d="M36.1818 62.7668C36.1818 62.9688 36.1233 63.0055 35.909 63.0239C35.7142 63.0239 35.0322 63.0239 34.2724 63.0055C34.4087 63.281 34.5646 63.6483 34.6231 63.9421C35.6947 63.9421 36.3766 63.9421 36.7858 63.7769C37.2339 63.5932 37.3508 63.3361 37.3508 62.7851V57.4959H32.5772V58.5243H36.1818V62.7668ZM35.5778 59.9936C35.0907 59.6814 34.1749 59.2039 33.4735 58.91L32.889 59.5528C33.6099 59.865 34.5062 60.3792 34.9738 60.7282L35.5778 59.9936ZM35.7142 60.5996C34.5256 61.1873 33.3956 61.7383 32.5772 62.0872L33.2007 62.932C34.0775 62.4913 35.0322 61.9403 35.9675 61.4077L35.7142 60.5996ZM22.0949 58.9835H25.0954V62.1607H22.0949V58.9835ZM24.3745 70.6823V67.2112H26.5372V66.0358H24.3745V63.3177H26.2839V57.8264H20.9453V63.3177H23.2054V70.9761L22.0169 71.2883V65.1543H20.9063V71.5271L20.2244 71.6924L20.4972 72.9412C22.2702 72.4821 24.5888 71.8576 26.81 71.2883L26.6736 70.1129L24.3745 70.6823ZM29.4014 70.719H32.5772V72.0413H29.4014V70.719ZM32.5772 67.5601H29.4014V66.2929H32.5772V67.5601ZM32.5772 69.764H29.4014V68.5151H32.5772V69.764ZM37.7795 72.0413H33.9216V70.719H37.0975V69.764H33.9216V68.5151H37.0975V67.5601H33.9216V66.2929H37.6041V65.2277H33.9216C33.7073 64.7502 33.3956 64.1258 33.1033 63.6299L31.8953 63.9605C32.1096 64.3278 32.324 64.8053 32.4993 65.2277H29.869C30.1028 64.842 30.3171 64.4196 30.4925 64.0523L29.6936 63.7769C30.5704 63.7769 31.1549 63.7401 31.5446 63.5932C31.9927 63.4279 32.0901 63.1524 32.0901 62.6015V57.5142H27.0828V58.5243H30.9016V62.6015C30.9016 62.7851 30.8432 62.8218 30.6288 62.8402C30.434 62.8586 29.7716 62.8586 28.9922 62.8402C29.1286 63.079 29.265 63.3728 29.3234 63.6483L29.1675 63.5932C28.6025 65.1175 27.4335 66.9908 26.2449 68.2213C26.4593 68.5151 26.771 69.0661 26.9269 69.3599C27.3361 68.9559 27.7062 68.4968 28.0959 67.9825V73.8044H29.4014V73.1065H37.7795V72.0413ZM27.7647 63.0606C28.6804 62.5647 29.6741 62.0138 30.6288 61.4628L30.3756 60.6731C29.1481 61.2608 27.979 61.8485 27.1412 62.1974L27.7647 63.0606ZM27.3945 59.5161C28.1154 59.8466 29.0701 60.3425 29.5572 60.6547L30.1417 59.9201C29.6352 59.6263 28.6804 59.1488 27.9595 58.8733L27.3945 59.5161Z" fill="#535B66"/>
<path d="M53.0354 60.82C52.3925 60.0487 51.0286 59.0018 49.8596 58.3039L48.9438 59.0937C50.0934 59.8466 51.4378 60.9302 52.0418 61.7016L53.0354 60.82ZM52.5678 65.6501C51.8469 64.8604 50.3272 63.7769 49.0802 63.0606L48.1839 63.8687C49.4114 64.6033 50.9117 65.742 51.6131 66.55L52.5678 65.6501ZM47.4435 66.9541C47.0344 66.4582 45.3587 64.438 44.7547 63.7952V63.4646H47.6189V62.1791H44.7547V59.112C45.69 58.91 46.5862 58.6529 47.3072 58.3774L46.4304 57.2938C44.9691 57.8999 42.4167 58.4325 40.2345 58.7631C40.3903 59.0569 40.5852 59.5344 40.6631 59.8283C41.5204 59.7181 42.4361 59.5712 43.3324 59.4059V62.1791H40.0591V63.4646H43.1376C42.3777 65.5767 41.0138 67.9274 39.7863 69.2314C40.0201 69.5436 40.3708 70.0946 40.5072 70.4619C41.5204 69.3232 42.5336 67.505 43.3324 65.6685V73.786H44.7547V65.2828C45.4172 66.2195 46.2355 67.4132 46.5668 68.0193L47.4435 66.9541ZM57.8675 68.607L57.6532 67.3581L55.3735 67.6887V57.0367H53.9512V67.9091L47.3656 68.9008L47.5994 70.2048L53.9512 69.213V73.786H55.3735V68.9926L57.8675 68.607Z" fill="#535B66"/>
<path d="M66.1092 65.0624C65.4078 65.2645 64.6674 65.4665 63.966 65.6501V62.0138H66.1092V60.7282H63.966V57.0551H62.5436V60.7282H60.0497V62.0138H62.5436V66.0174C61.511 66.2929 60.5758 66.5133 59.7964 66.6786L60.2056 68.0193L62.5436 67.3765V72.1699C62.5436 72.427 62.4267 72.5188 62.154 72.5188C61.9201 72.5372 61.0823 72.5372 60.1471 72.5188C60.3419 72.8861 60.5563 73.4187 60.5952 73.7677C61.9396 73.786 62.758 73.7493 63.2451 73.5289C63.7516 73.3085 63.966 72.9412 63.966 72.1699V66.9724C64.7258 66.7521 65.5247 66.5317 66.304 66.3113L66.1092 65.0624ZM74.7991 65.191C74.0976 66.8622 73.0065 68.2764 71.6622 69.415C70.4347 68.2397 69.4605 66.7888 68.798 65.191H74.7991ZM75.7148 63.8687L75.481 63.9238H72.3831V61.1873H77.0397V59.9201H72.3831V57.0367H70.9607V59.9201H66.4015V61.1873H70.9607V63.9238H66.7911V65.191H67.4341L67.3757 65.2094C68.1356 67.1745 69.2072 68.8641 70.5711 70.2415C68.9928 71.3251 67.1808 72.0964 65.2909 72.5739C65.5637 72.8677 65.9144 73.4371 66.0702 73.8044C68.0576 73.2167 69.9476 72.3719 71.6037 71.1781C73.0455 72.3719 74.7796 73.2534 76.8059 73.8411C77.0202 73.4738 77.4294 72.9412 77.7412 72.6657C75.7928 72.1699 74.1171 71.3801 72.7143 70.2966C74.4678 68.7723 75.8512 66.7704 76.6695 64.2544L75.7148 63.8687Z" fill="#535B66"/>
<path d="M93.4453 65.9072H85.3204V64.0523H93.4453V65.9072ZM85.262 69.011C85.3009 68.5335 85.3204 68.0927 85.3204 67.652V67.0826H93.4453V69.011H85.262ZM97.1472 60.6915V59.4059H87.2104C87.5026 58.7447 87.7559 58.0468 87.9703 57.3673L86.5284 57.0367C86.2946 57.8264 86.0024 58.6162 85.6711 59.4059H80.1961V60.6915H85.0477C83.8396 63.0606 82.0861 65.2277 79.8065 66.6786C80.0792 66.9541 80.5274 67.4499 80.7222 67.7438C81.9107 66.9541 82.9629 65.9807 83.8786 64.9339V67.6152C83.8786 69.3599 83.7033 71.3801 82.0861 72.8494C82.3978 73.0514 82.9239 73.6207 83.0993 73.9146C84.2488 72.9045 84.8333 71.5271 85.0866 70.1864H93.4453V72.0964C93.4453 72.3719 93.3284 72.4637 92.9971 72.4821C92.6464 72.4821 91.4774 72.5004 90.172 72.4453C90.3863 72.831 90.6006 73.382 90.659 73.786C92.3152 73.786 93.4063 73.7677 94.0493 73.5473C94.6728 73.3269 94.8676 72.9228 94.8676 72.0964V62.8218H85.4373C85.866 62.1423 86.2557 61.4077 86.6259 60.6915H97.1472Z" fill="#535B66"/>
<path d="M105.486 57.7346L105.272 57.7897H100.615V73.786H101.901V59.0386H104.727C104.337 60.2507 103.752 61.8301 103.187 63.1524C104.59 64.6217 104.941 65.8889 104.941 66.8806C104.941 67.4316 104.824 67.9458 104.532 68.1478C104.376 68.258 104.161 68.2948 103.928 68.3131C103.616 68.3498 103.246 68.3315 102.798 68.2948C103.012 68.6437 103.148 69.1579 103.168 69.5069C103.577 69.5252 104.084 69.5252 104.454 69.4701C104.843 69.4334 105.214 69.3232 105.486 69.1212C106.012 68.7723 106.246 67.9642 106.246 67.0092C106.246 65.8705 105.896 64.5298 104.493 63.0055C105.155 61.5546 105.857 59.7548 106.441 58.2672L105.486 57.7346ZM108.799 62.3994H114.507V64.6768H108.799V62.3994ZM114.507 59.0569V61.2608H108.799V59.0569H114.507ZM116.125 66.4582C115.326 67.1194 114.098 67.9825 113.085 68.6253C112.598 67.7989 112.228 66.8622 111.936 65.8705H115.91V57.8448H107.396V71.4169C107.396 72.1699 106.987 72.5555 106.675 72.7025C106.909 72.9596 107.22 73.5289 107.318 73.8228C107.708 73.584 108.292 73.4003 112.306 72.3719C112.247 72.078 112.228 71.5271 112.228 71.123L108.799 71.9127V65.8705H110.669C111.643 69.5069 113.455 72.3168 116.495 73.6758C116.729 73.3269 117.177 72.7759 117.489 72.5188C115.93 71.9127 114.683 70.9026 113.728 69.5987C114.8 68.9926 116.086 68.1846 117.079 67.4132L116.125 66.4582Z" fill="#535B66"/>
<path d="M124.834 57.5877C123.626 60.3609 121.6 63.0422 119.417 64.7502C119.807 65.0073 120.431 65.5767 120.703 65.8521C122.866 63.9789 125.009 61.0588 126.412 58.0468L124.834 57.5877ZM130.504 67.3765C131.283 68.3498 132.16 69.5436 132.92 70.6823L123.918 71.1598C125.945 68.9743 127.951 66.1276 129.627 63.281L128.01 62.6382C126.393 65.742 123.899 69.0294 123.08 69.8742C122.36 70.7374 121.794 71.3434 121.268 71.4536C121.483 71.876 121.756 72.6106 121.833 72.9045C122.593 72.6474 123.665 72.5923 133.758 71.9311C134.167 72.5923 134.537 73.18 134.81 73.6942L136.252 72.9412C135.316 71.3067 133.465 68.7355 131.887 66.7704L130.504 67.3765ZM127.581 57.5142V58.8916H131.205C132.257 61.6648 134.128 64.3094 136.33 65.8521C136.602 65.4665 137.109 64.8604 137.46 64.5849C135.18 63.1708 133.232 60.416 132.296 57.5142H127.581Z" fill="#535B66"/>
<path d="M149.325 65.8521V69.2681H143.071V65.8521H149.325ZM150.748 70.4802V64.64H141.649V71.8209H143.071V70.4802H150.748ZM152.073 61.4444H140.421V62.6749H152.073V61.4444ZM155.755 58.2305H140.285V59.5344H154.294V71.7842C154.294 72.1331 154.196 72.225 153.826 72.2433C153.436 72.2617 152.092 72.2617 150.748 72.225C150.982 72.6106 151.196 73.2902 151.254 73.6942C152.988 73.6942 154.196 73.6758 154.878 73.4371C155.541 73.1983 155.755 72.7208 155.755 71.7842V58.2305Z" fill="#535B66"/>
<g style="mix-blend-mode:soft-light">
<path fill-rule="evenodd" clip-rule="evenodd" d="M114.507 60.7812C114.52 60.7873 114.533 60.7934 114.546 60.7995C114.533 60.7982 114.52 60.7969 114.507 60.7955V60.7812ZM110.637 59.0569C109.622 58.6337 108.6 58.2296 107.571 57.8448H107.396V60.1397C107.863 60.177 108.331 60.2156 108.799 60.2553V59.0569H110.637ZM105.752 60.0135C105.957 59.5007 106.155 58.9947 106.343 58.516L106.343 58.5157L106.441 58.2672L105.486 57.7346L105.272 57.7897H100.615V59.6852C101.044 59.7082 101.472 59.7324 101.901 59.7576V59.0386H104.726C104.637 59.3155 104.538 59.6115 104.431 59.9193C104.871 59.9496 105.312 59.981 105.752 60.0135ZM104.87 66.1188C105.314 66.1838 105.757 66.2512 106.201 66.3207C106.233 66.5578 106.246 66.7873 106.246 67.0092C106.246 67.9642 106.012 68.7723 105.486 69.1212C105.214 69.3232 104.843 69.4334 104.454 69.4702C104.084 69.5252 103.577 69.5252 103.168 69.5069C103.148 69.1579 103.012 68.6437 102.798 68.2948C103.246 68.3315 103.616 68.3499 103.928 68.3131C104.161 68.2948 104.376 68.258 104.532 68.1478C104.824 67.9458 104.941 67.4316 104.941 66.8806C104.941 66.6423 104.921 66.388 104.87 66.1188ZM101.901 65.7173C101.473 65.6642 101.044 65.6132 100.615 65.5643V73.5678C101.045 73.602 101.473 73.6379 101.901 73.6755V65.7173ZM126.238 71.0367C127.408 71.406 128.576 71.7918 129.741 72.194C123.346 72.6138 122.478 72.6866 121.833 72.9045C121.756 72.6106 121.483 71.876 121.268 71.4536C121.76 71.3506 122.286 70.8146 122.941 70.0403C123.464 70.1913 123.987 70.3456 124.509 70.5032C124.313 70.7279 124.116 70.947 123.918 71.1598L126.238 71.0367ZM114.271 67.8387C114.834 67.9623 115.396 68.0896 115.959 68.2205C115.218 68.7217 114.427 69.2032 113.728 69.5987C114.683 70.9027 115.93 71.9128 117.489 72.5188C117.177 72.7759 116.729 73.3269 116.495 73.6758C113.83 72.4842 112.108 70.1772 111.068 67.1757C111.546 67.2686 112.024 67.3642 112.501 67.4625C112.675 67.8687 112.869 68.2579 113.085 68.6253C113.462 68.3864 113.868 68.1169 114.271 67.8387ZM108.799 66.7542V71.9128L112.228 71.123C112.228 71.5271 112.247 72.078 112.306 72.3719C108.292 73.4004 107.708 73.584 107.318 73.8228C107.22 73.5289 106.909 72.9596 106.675 72.7025C106.987 72.5555 107.396 72.1699 107.396 71.4169V66.5137C107.863 66.5913 108.331 66.6715 108.799 66.7542ZM94.584 73.2071C94.7919 72.9624 94.8676 72.6114 94.8676 72.0964V65.0354C94.3932 65.0022 93.9191 64.9716 93.4452 64.9436V65.9073H85.3204V64.7171C84.262 64.7209 83.2057 64.7377 82.1518 64.7675C81.4449 65.4875 80.6628 66.1336 79.8064 66.6786C80.0792 66.9541 80.5274 67.45 80.7222 67.7438C81.9107 66.9541 82.9629 65.9807 83.8786 64.9339V67.6152C83.8786 69.36 83.7032 71.3802 82.0861 72.8494C82.1786 72.9094 82.2901 73.0018 82.4057 73.1097C82.8939 73.0975 83.3823 73.0872 83.8709 73.0788C84.5248 72.2059 84.8978 71.1859 85.0866 70.1864H93.4452V72.0964C93.4452 72.3719 93.3283 72.4637 92.9971 72.4821C92.9431 72.4821 92.8698 72.4825 92.7795 72.4831C92.2833 72.486 91.2764 72.492 90.1719 72.4454C90.2753 72.6314 90.3787 72.8558 90.4645 73.0837C91.6001 73.1051 92.7368 73.1373 93.8747 73.1806C94.1113 73.1889 94.3477 73.1977 94.584 73.2071ZM77.1646 73.3127C77.3521 73.0656 77.5626 72.8235 77.7411 72.6657C75.7927 72.1699 74.1171 71.3802 72.7143 70.2966C74.2758 68.9392 75.5437 67.2032 76.3806 65.0626C75.8486 65.1021 75.3174 65.1449 74.7869 65.191H74.7991C74.0976 66.8623 73.0065 68.2764 71.6621 69.4151C70.598 68.3961 69.7243 67.1701 69.0789 65.8209C68.622 65.8821 68.1658 65.9458 67.7102 66.0121C68.4388 67.6378 69.3966 69.0554 70.571 70.2415C68.9928 71.3251 67.1808 72.0964 65.2909 72.5739C65.5636 72.8678 65.9144 73.4371 66.0702 73.8044C68.0576 73.2167 69.9475 72.3719 71.6037 71.1781C72.7259 72.1073 74.0252 72.8473 75.5016 73.4068C76.0557 73.3731 76.61 73.3417 77.1646 73.3127ZM43.3324 72.2527V73.786H44.7547V71.7284C44.2792 71.9 43.805 72.0748 43.3324 72.2527ZM50.0084 63.6294C49.4805 63.7559 48.9543 63.8857 48.4295 64.0188C48.3467 63.9671 48.2647 63.917 48.1839 63.8687L49.0802 63.0606C49.3789 63.2322 49.6932 63.4248 50.0084 63.6294ZM51.019 69.6709L53.9512 69.213V73.786H55.3735V68.9927L57.8675 68.607L57.7447 67.8919C55.4783 68.4199 53.2353 69.013 51.019 69.6709ZM55.3735 62.4519C54.8992 62.5466 54.4251 62.6438 53.9512 62.7434V57.0367H55.3735V62.4519ZM60.0125 67.3869L60.2055 68.0193L62.5436 67.3765V72.1699C62.5436 72.427 62.4267 72.5188 62.1539 72.5188C61.9201 72.5372 61.0823 72.5372 60.1471 72.5188C60.3419 72.8861 60.5562 73.4187 60.5952 73.7677C61.9396 73.786 62.7579 73.7493 63.245 73.5289C63.7516 73.3085 63.966 72.9412 63.966 72.1699V66.9725C64.4725 66.8255 64.9964 66.6786 65.5203 66.5317L65.5204 66.5317L65.5204 66.5317L65.5204 66.5317L65.5205 66.5317L65.5205 66.5316L65.5205 66.5316C65.7824 66.4582 66.0443 66.3847 66.304 66.3113L66.2909 66.2271C64.1813 66.5594 62.0877 66.9461 60.0125 67.3869ZM65.945 60.7282C63.9762 60.9795 62.0112 61.2678 60.0497 61.5952V60.7282H62.5436V57.0551H63.966V60.7282H65.945ZM66.4015 60.6706C68.8544 60.3647 71.3131 60.1158 73.7778 59.9201H72.383V57.0367H70.9607V59.9201H66.4015V60.6706ZM80.1961 59.5286C81.4265 59.4756 82.6584 59.4348 83.8919 59.4059H80.1961V59.5286ZM85.6853 59.3721C86.2007 59.3647 86.7164 59.3593 87.2323 59.356C87.5153 58.7097 87.7613 58.0298 87.9702 57.3673L86.5284 57.0367C86.298 57.8152 86.0107 58.5936 85.6853 59.3721ZM93.3426 59.4059C94.6091 59.4343 95.8773 59.4738 97.1472 59.5236V59.4059H93.3426ZM45.6115 64.7688C44.4353 65.0966 43.2668 65.4405 42.1055 65.7999C42.5056 65.0311 42.8614 64.2321 43.1376 63.4647H40.0591V62.1791H43.3324V59.4059C42.4361 59.5712 41.5204 59.7181 40.6631 59.8283C40.5852 59.5344 40.3903 59.0569 40.2344 58.7631C42.4166 58.4325 44.9691 57.8999 46.4304 57.2939L47.3071 58.3774C46.5862 58.6529 45.69 58.91 44.7547 59.112V62.1791H47.6189V63.4647H44.7547V63.7952C44.9527 64.0059 45.2657 64.3644 45.6115 64.7688ZM36.8084 67.5601H33.9216V66.2929H37.6041V65.2277H33.9216C33.7073 64.7502 33.3956 64.1258 33.1033 63.6299L31.8953 63.9605C32.1096 64.3278 32.3239 64.8053 32.4993 65.2277H29.8689C30.1028 64.8421 30.3171 64.4197 30.4924 64.0523L29.6936 63.7769C30.5704 63.7769 31.1549 63.7401 31.5446 63.5932C31.9927 63.4279 32.0901 63.1524 32.0901 62.6015V61.5295C31.6935 61.7073 31.2973 61.8877 30.9016 62.0705V62.6015C30.9016 62.7851 30.8432 62.8219 30.6288 62.8402C30.4566 62.8565 29.9188 62.8583 29.258 62.8459C29.1888 62.8792 29.1197 62.9125 29.0505 62.946C29.166 63.1628 29.2733 63.4123 29.3234 63.6483L29.1675 63.5932C28.6025 65.1175 27.4335 66.9908 26.2449 68.2213C26.4593 68.5151 26.771 69.0661 26.9269 69.36C27.336 68.9559 27.7062 68.4968 28.0959 67.9826V70.9663C29.0583 70.5563 30.0249 70.1554 30.996 69.764H29.4013V68.5152H32.5772V69.1369C33.0244 68.9624 33.4725 68.7901 33.9216 68.6198V68.5152H34.1985C35.0647 68.1888 35.9346 67.8703 36.8084 67.5601ZM11.1057 73.675C12.1839 73.6699 12.8729 73.6347 13.327 73.4371C13.8726 73.2534 14.009 72.9045 14.009 72.2066V71.6431C13.0357 72.3038 12.0678 72.9811 11.1057 73.675ZM15.9763 70.3353C16.3395 71.1177 16.6646 71.888 16.8536 72.4821L18.0422 72.0229C17.8301 71.3899 17.447 70.5285 17.0221 69.6621C16.6729 69.8844 16.3243 70.1088 15.9763 70.3353ZM20.9063 67.2911V71.5271L20.2244 71.6924L20.4971 72.9412C21.2417 72.7484 22.0825 72.5265 22.9719 72.2917L22.9719 72.2917C24.2004 71.9674 25.5216 71.6186 26.81 71.2883L26.6736 70.1129L24.3745 70.6823V67.2112H26.5372V66.0358H24.3745V65.3401C23.9842 65.5511 23.5945 65.7647 23.2054 65.9807V70.9761L22.0169 71.2883V66.6496C21.6461 66.8611 21.2759 67.075 20.9063 67.2911ZM34.5702 60.4527C34.7239 60.5507 34.8613 60.6442 34.9738 60.7282L35.5262 60.0563C35.2073 60.1868 34.8886 60.319 34.5702 60.4527ZM36.1818 59.7903V62.7668C36.1818 62.9688 36.1233 63.0055 35.909 63.0239H35.909C35.7141 63.0239 35.0322 63.0239 34.2723 63.0055C34.4087 63.281 34.5646 63.6483 34.623 63.9422C35.6947 63.9422 36.3766 63.9422 36.7858 63.7769C37.2339 63.5932 37.3508 63.3361 37.3508 62.7851V59.3279C36.9608 59.4797 36.5711 59.6338 36.1818 59.7903ZM32.5772 62.0872C33.3956 61.7383 34.5256 61.1873 35.7142 60.5996L35.9674 61.4077L35.6881 61.5669C34.8432 62.0488 33.9903 62.5351 33.2007 62.9321L32.5772 62.0872ZM29.4013 67.5601H32.5772V66.2929H29.4013V67.5601ZM53.0354 60.82C52.3925 60.0487 51.0286 59.0018 49.8595 58.304L48.9438 59.0937C50.0933 59.8467 51.4377 60.9302 52.0417 61.7016L53.0354 60.82ZM85.262 69.011C85.3009 68.5335 85.3204 68.0927 85.3204 67.652V67.0826H93.4452V69.011H85.262Z" fill="#535B66"/>
</g>
<path d="M6.48306 82.4061C6.40754 83.206 6.11231 83.8308 5.59737 84.2805C5.08243 84.7268 4.39757 84.9499 3.54277 84.9499C2.94544 84.9499 2.41849 84.8092 1.96191 84.5277C1.50877 84.2427 1.15861 83.8394 0.911439 83.3176C0.664269 82.7958 0.535535 82.1898 0.525236 81.4998V80.7995C0.525236 80.0923 0.650538 79.4693 0.90114 78.9303C1.15174 78.3913 1.51048 77.9759 1.97736 77.6841C2.44767 77.3923 2.99007 77.2464 3.60456 77.2464C4.43189 77.2464 5.09788 77.4713 5.60252 77.921C6.10716 78.3707 6.40067 79.0058 6.48306 79.8263H5.18542C5.12363 79.2873 4.96571 78.8994 4.71168 78.6625C4.46107 78.4222 4.09204 78.3021 3.60456 78.3021C3.03813 78.3021 2.60215 78.5098 2.29662 78.9251C1.99452 79.3371 1.84004 79.943 1.83318 80.7429V81.4071C1.83318 82.2173 1.97736 82.8352 2.26572 83.2609C2.55752 83.6866 2.9832 83.8994 3.54277 83.8994C4.05427 83.8994 4.43876 83.7844 4.69623 83.5544C4.9537 83.3244 5.11676 82.9417 5.18542 82.4061H6.48306ZM10.6174 84.9499C9.82439 84.9499 9.18072 84.701 8.68638 84.2033C8.19547 83.702 7.95002 83.0361 7.95002 82.2053V82.0508C7.95002 81.4947 8.05644 80.9986 8.26928 80.5626C8.48555 80.1232 8.78765 79.7817 9.17557 79.5379C9.56349 79.2942 9.99603 79.1723 10.4732 79.1723C11.2319 79.1723 11.8172 79.4143 12.2291 79.8984C12.6445 80.3824 12.8522 81.0673 12.8522 81.953V82.4576H9.21161C9.24937 82.9176 9.40214 83.2815 9.66991 83.5493C9.94111 83.817 10.281 83.9509 10.6895 83.9509C11.2628 83.9509 11.7297 83.7192 12.0901 83.2558L12.7647 83.8994C12.5415 84.2324 12.2429 84.4916 11.8687 84.677C11.4979 84.8589 11.0808 84.9499 10.6174 84.9499ZM10.4681 80.1764C10.1248 80.1764 9.8467 80.2966 9.63386 80.5369C9.42445 80.7772 9.29057 81.1119 9.23221 81.541H11.6164V81.4483C11.5889 81.0295 11.4773 80.7137 11.2817 80.5009C11.086 80.2846 10.8148 80.1764 10.4681 80.1764ZM16.0288 77.921V79.2753H17.0123V80.2022H16.0288V83.3124C16.0288 83.5253 16.07 83.6797 16.1523 83.7759C16.2382 83.8685 16.3892 83.9149 16.6055 83.9149C16.7497 83.9149 16.8956 83.8977 17.0432 83.8634V84.8315C16.7583 84.9104 16.4836 84.9499 16.2193 84.9499C15.2581 84.9499 14.7775 84.4195 14.7775 83.3588V80.2022H13.8609V79.2753H14.7775V77.921H16.0288ZM21.9808 84.3011C21.6135 84.7336 21.0917 84.9499 20.4154 84.9499C19.8112 84.9499 19.3529 84.7731 19.0405 84.4195C18.7316 84.0659 18.5771 83.5544 18.5771 82.885V79.2753H19.8284V82.8696C19.8284 83.5767 20.1219 83.9303 20.7089 83.9303C21.3166 83.9303 21.7268 83.7123 21.9396 83.2764V79.2753H23.1909V84.8469H22.0117L21.9808 84.3011ZM28.2212 83.333C28.2212 83.1099 28.1286 82.9399 27.9432 82.8232C27.7612 82.7065 27.4574 82.6035 27.0317 82.5143C26.6061 82.425 26.2508 82.3117 25.9658 82.1744C25.341 81.8723 25.0286 81.4346 25.0286 80.8613C25.0286 80.3807 25.2312 79.979 25.6363 79.6564C26.0413 79.3337 26.5563 79.1723 27.1811 79.1723C27.8471 79.1723 28.3843 79.3371 28.7928 79.6667C29.2048 79.9962 29.4108 80.4236 29.4108 80.9488H28.1595C28.1595 80.7085 28.0702 80.5094 27.8917 80.3515C27.7132 80.1902 27.4763 80.1095 27.1811 80.1095C26.9064 80.1095 26.6816 80.173 26.5065 80.3C26.3349 80.427 26.249 80.597 26.249 80.8098C26.249 81.0021 26.3297 81.1514 26.4911 81.2578C26.6524 81.3642 26.9785 81.4724 27.4694 81.5822C27.9603 81.6886 28.3448 81.8174 28.6229 81.9684C28.9044 82.116 29.1121 82.2946 29.246 82.504C29.3833 82.7134 29.4519 82.9674 29.4519 83.2661C29.4519 83.7673 29.2443 84.1741 28.8289 84.4865C28.4135 84.7954 27.8694 84.9499 27.1965 84.9499C26.7399 84.9499 26.3331 84.8675 25.9761 84.7027C25.6191 84.538 25.341 84.3114 25.1419 84.023C24.9428 83.7347 24.8433 83.424 24.8433 83.091H26.0585C26.0757 83.3862 26.1872 83.6145 26.3932 83.7759C26.5992 83.9338 26.8721 84.0127 27.212 84.0127C27.5415 84.0127 27.7921 83.9509 27.9638 83.8273C28.1354 83.7003 28.2212 83.5355 28.2212 83.333ZM32.7469 77.921V79.2753H33.7305V80.2022H32.7469V83.3124C32.7469 83.5253 32.7881 83.6797 32.8705 83.7759C32.9563 83.8685 33.1074 83.9149 33.3237 83.9149C33.4678 83.9149 33.6137 83.8977 33.7614 83.8634V84.8315C33.4764 84.9104 33.2018 84.9499 32.9375 84.9499C31.9762 84.9499 31.4956 84.4195 31.4956 83.3588V80.2022H30.579V79.2753H31.4956V77.921H32.7469ZM37.7772 84.9499C36.9842 84.9499 36.3406 84.701 35.8462 84.2033C35.3553 83.702 35.1099 83.0361 35.1099 82.2053V82.0508C35.1099 81.4947 35.2163 80.9986 35.4291 80.5626C35.6454 80.1232 35.9475 79.7817 36.3354 79.5379C36.7233 79.2942 37.1559 79.1723 37.6331 79.1723C38.3917 79.1723 38.977 79.4143 39.389 79.8984C39.8044 80.3824 40.0121 81.0673 40.0121 81.953V82.4576H36.3715C36.4092 82.9176 36.562 83.2815 36.8298 83.5493C37.101 83.817 37.4408 83.9509 37.8493 83.9509C38.4226 83.9509 38.8895 83.7192 39.25 83.2558L39.9245 83.8994C39.7014 84.2324 39.4027 84.4916 39.0285 84.677C38.6578 84.8589 38.2407 84.9499 37.7772 84.9499ZM37.6279 80.1764C37.2846 80.1764 37.0066 80.2966 36.7937 80.5369C36.5843 80.7772 36.4504 81.1119 36.3921 81.541H38.7762V81.4483C38.7488 81.0295 38.6372 80.7137 38.4415 80.5009C38.2458 80.2846 37.9746 80.1764 37.6279 80.1764ZM43.4306 82.4576L42.8745 83.0292V84.8469H41.6232V76.9375H42.8745V81.4998L43.2659 81.0106L44.8055 79.2753H46.3091L44.2391 81.5977L46.5306 84.8469H45.0836L43.4306 82.4576ZM56.2513 78.3999H53.9135V84.8469H52.621V78.3999H50.3038V77.3494H56.2513V78.3999ZM59.742 84.9499C58.949 84.9499 58.3053 84.701 57.811 84.2033C57.3201 83.702 57.0746 83.0361 57.0746 82.2053V82.0508C57.0746 81.4947 57.1811 80.9986 57.3939 80.5626C57.6102 80.1232 57.9123 79.7817 58.3002 79.5379C58.6881 79.2942 59.1206 79.1723 59.5978 79.1723C60.3565 79.1723 60.9418 79.4143 61.3538 79.8984C61.7691 80.3824 61.9768 81.0673 61.9768 81.953V82.4576H58.3362C58.374 82.9176 58.5268 83.2815 58.7945 83.5493C59.0657 83.817 59.4056 83.9509 59.8141 83.9509C60.3874 83.9509 60.8543 83.7192 61.2147 83.2558L61.8893 83.8994C61.6662 84.2324 61.3675 84.4916 60.9933 84.677C60.6225 84.8589 60.2054 84.9499 59.742 84.9499ZM59.5927 80.1764C59.2494 80.1764 58.9713 80.2966 58.7585 80.5369C58.5491 80.7772 58.4152 81.1119 58.3568 81.541H60.741V81.4483C60.7135 81.0295 60.602 80.7137 60.4063 80.5009C60.2106 80.2846 59.9394 80.1764 59.5927 80.1764ZM65.8743 83.9509C66.1867 83.9509 66.4459 83.86 66.6518 83.678C66.8578 83.4961 66.9677 83.2712 66.9814 83.0034H68.1606C68.1469 83.3502 68.0387 83.6746 67.8362 83.9767C67.6337 84.2753 67.359 84.5122 67.0123 84.6873C66.6656 84.8624 66.2914 84.9499 65.8897 84.9499C65.1105 84.9499 64.4925 84.6976 64.036 84.193C63.5794 83.6883 63.3511 82.9914 63.3511 82.1023V81.9736C63.3511 81.1256 63.5777 80.4476 64.0308 79.9396C64.484 79.4281 65.1019 79.1723 65.8846 79.1723C66.5471 79.1723 67.0861 79.3663 67.5015 79.7542C67.9203 80.1387 68.14 80.645 68.1606 81.2733H66.9814C66.9677 80.954 66.8578 80.6914 66.6518 80.4854C66.4493 80.2794 66.1901 80.1764 65.8743 80.1764C65.4692 80.1764 65.1568 80.3241 64.9371 80.6193C64.7174 80.9111 64.6058 81.3556 64.6024 81.953V82.1538C64.6024 82.758 64.7105 83.2094 64.9268 83.5081C65.1465 83.8033 65.4623 83.9509 65.8743 83.9509ZM70.9716 79.8829C71.3801 79.4092 71.8967 79.1723 72.5215 79.1723C73.7093 79.1723 74.3118 79.8503 74.3289 81.2063V84.8469H73.0776V81.2527C73.0776 80.8682 72.9935 80.597 72.8253 80.4391C72.6605 80.2777 72.4168 80.197 72.0941 80.197C71.5929 80.197 71.2187 80.4202 70.9716 80.8665V84.8469H69.7203V76.9375H70.9716V79.8829ZM77.3922 79.2753L77.4282 79.919C77.8402 79.4212 78.3809 79.1723 79.0503 79.1723C80.2106 79.1723 80.8011 79.8366 80.8217 81.1651V84.8469H79.5704V81.2372C79.5704 80.8836 79.4931 80.6227 79.3387 80.4545C79.1876 80.2829 78.9387 80.197 78.592 80.197C78.0874 80.197 77.7115 80.4253 77.4643 80.8819V84.8469H76.213V79.2753H77.3922ZM82.4998 82.0096C82.4998 81.4638 82.6079 80.9729 82.8242 80.5369C83.0404 80.0975 83.3443 79.7611 83.7356 79.5276C84.127 79.2907 84.5767 79.1723 85.0848 79.1723C85.8366 79.1723 86.4459 79.4143 86.9128 79.8984C87.3831 80.3824 87.6371 81.0244 87.6749 81.8242L87.68 82.1178C87.68 82.667 87.5736 83.1579 87.3608 83.5905C87.1514 84.023 86.8493 84.3577 86.4545 84.5946C86.0631 84.8315 85.61 84.9499 85.095 84.9499C84.3089 84.9499 83.679 84.689 83.2052 84.1672C82.7349 83.642 82.4998 82.9434 82.4998 82.0714V82.0096ZM83.7511 82.1178C83.7511 82.6911 83.8695 83.1408 84.1064 83.4669C84.3432 83.7896 84.6728 83.9509 85.095 83.9509C85.5173 83.9509 85.8451 83.7862 86.0786 83.4566C86.3155 83.127 86.4339 82.6447 86.4339 82.0096C86.4339 81.4466 86.312 81.0003 86.0683 80.6708C85.828 80.3412 85.5001 80.1764 85.0848 80.1764C84.6762 80.1764 84.3518 80.3395 84.1115 80.6656C83.8712 80.9883 83.7511 81.4724 83.7511 82.1178ZM90.7021 84.8469H89.4508V76.9375H90.7021V84.8469ZM92.4677 82.0096C92.4677 81.4638 92.5759 80.9729 92.7921 80.5369C93.0084 80.0975 93.3122 79.7611 93.7036 79.5276C94.0949 79.2907 94.5446 79.1723 95.0527 79.1723C95.8045 79.1723 96.4139 79.4143 96.8807 79.8984C97.351 80.3824 97.6051 81.0244 97.6428 81.8242L97.648 82.1178C97.648 82.667 97.5416 83.1579 97.3287 83.5905C97.1193 84.023 96.8172 84.3577 96.4224 84.5946C96.0311 84.8315 95.5779 84.9499 95.063 84.9499C94.2769 84.9499 93.6469 84.689 93.1732 84.1672C92.7029 83.642 92.4677 82.9434 92.4677 82.0714V82.0096ZM93.719 82.1178C93.719 82.6911 93.8374 83.1408 94.0743 83.4669C94.3112 83.7896 94.6407 83.9509 95.063 83.9509C95.4852 83.9509 95.8131 83.7862 96.0465 83.4566C96.2834 83.127 96.4018 82.6447 96.4018 82.0096C96.4018 81.4466 96.28 81.0003 96.0362 80.6708C95.7959 80.3412 95.4681 80.1764 95.0527 80.1764C94.6442 80.1764 94.3198 80.3395 94.0795 80.6656C93.8392 80.9883 93.719 81.4724 93.719 82.1178ZM99.1201 82.0199C99.1201 81.1548 99.3226 80.4648 99.7277 79.9499C100.136 79.4315 100.677 79.1723 101.35 79.1723C101.985 79.1723 102.484 79.3937 102.848 79.8366L102.905 79.2753H104.033V84.677C104.033 85.4082 103.804 85.9849 103.348 86.4072C102.895 86.8294 102.282 87.0406 101.509 87.0406C101.101 87.0406 100.701 86.9547 100.31 86.7831C99.9217 86.6149 99.6264 86.3935 99.4239 86.1188L100.016 85.367C100.401 85.8236 100.874 86.0519 101.437 86.0519C101.853 86.0519 102.181 85.9386 102.421 85.712C102.661 85.4889 102.781 85.1593 102.781 84.7233V84.3474C102.421 84.7491 101.94 84.9499 101.339 84.9499C100.687 84.9499 100.153 84.6907 99.738 84.1724C99.3261 83.654 99.1201 82.9365 99.1201 82.0199ZM100.366 82.1281C100.366 82.6876 100.48 83.1287 100.706 83.4514C100.936 83.7707 101.254 83.9303 101.659 83.9303C102.163 83.9303 102.538 83.7141 102.781 83.2815V80.8304C102.544 80.4082 102.174 80.197 101.669 80.197C101.257 80.197 100.936 80.3601 100.706 80.6862C100.48 81.0124 100.366 81.493 100.366 82.1281ZM107.904 83.0549L109.037 79.2753H110.371L108.157 85.6914C107.817 86.6286 107.24 87.0972 106.426 87.0972C106.244 87.0972 106.044 87.0663 105.824 87.0045V86.0364L106.061 86.0519C106.377 86.0519 106.614 85.9935 106.771 85.8768C106.933 85.7635 107.06 85.5713 107.152 85.3001L107.333 84.8212L105.376 79.2753H106.725L107.904 83.0549ZM120.828 82.4061C120.752 83.206 120.457 83.8308 119.942 84.2805C119.427 84.7268 118.742 84.9499 117.888 84.9499C117.29 84.9499 116.763 84.8092 116.307 84.5277C115.854 84.2427 115.504 83.8394 115.256 83.3176C115.009 82.7958 114.88 82.1898 114.87 81.4998V80.7995C114.87 80.0923 114.995 79.4693 115.246 78.9303C115.497 78.3913 115.855 77.9759 116.322 77.6841C116.793 77.3923 117.335 77.2464 117.949 77.2464C118.777 77.2464 119.443 77.4713 119.947 77.921C120.452 78.3707 120.746 79.0058 120.828 79.8263H119.53C119.469 79.2873 119.311 78.8994 119.057 78.6625C118.806 78.4222 118.437 78.3021 117.949 78.3021C117.383 78.3021 116.947 78.5098 116.642 78.9251C116.339 79.3371 116.185 79.943 116.178 80.7429V81.4071C116.178 82.2173 116.322 82.8352 116.611 83.2609C116.902 83.6866 117.328 83.8994 117.888 83.8994C118.399 83.8994 118.784 83.7844 119.041 83.5544C119.299 83.3244 119.462 82.9417 119.53 82.4061H120.828ZM122.274 82.0096C122.274 81.4638 122.382 80.9729 122.599 80.5369C122.815 80.0975 123.119 79.7611 123.51 79.5276C123.902 79.2907 124.351 79.1723 124.859 79.1723C125.611 79.1723 126.22 79.4143 126.687 79.8984C127.158 80.3824 127.412 81.0244 127.449 81.8242L127.455 82.1178C127.455 82.667 127.348 83.1579 127.135 83.5905C126.926 84.023 126.624 84.3577 126.229 84.5946C125.838 84.8315 125.385 84.9499 124.87 84.9499C124.084 84.9499 123.454 84.689 122.98 84.1672C122.51 83.642 122.274 82.9434 122.274 82.0714V82.0096ZM123.526 82.1178C123.526 82.6911 123.644 83.1408 123.881 83.4669C124.118 83.7896 124.447 83.9509 124.87 83.9509C125.292 83.9509 125.62 83.7862 125.853 83.4566C126.09 83.127 126.208 82.6447 126.208 82.0096C126.208 81.4466 126.087 81.0003 125.843 80.6708C125.603 80.3412 125.275 80.1764 124.859 80.1764C124.451 80.1764 124.126 80.3395 123.886 80.6656C123.646 80.9883 123.526 81.4724 123.526 82.1178ZM129.926 83.5287C130.159 83.5287 130.339 83.5956 130.466 83.7295C130.593 83.86 130.657 84.0247 130.657 84.2238C130.657 84.4195 130.593 84.5826 130.466 84.713C130.339 84.8401 130.159 84.9036 129.926 84.9036C129.703 84.9036 129.526 84.8401 129.395 84.713C129.265 84.586 129.2 84.423 129.2 84.2238C129.2 84.0247 129.263 83.86 129.39 83.7295C129.517 83.5956 129.696 83.5287 129.926 83.5287ZM132.901 86.5359L132.227 86.1343C132.426 85.8219 132.562 85.549 132.634 85.3155C132.709 85.0855 132.749 84.8504 132.752 84.6101V83.6368H133.88L133.875 84.538C133.871 84.9019 133.779 85.2657 133.597 85.6296C133.418 85.997 133.186 86.299 132.901 86.5359ZM140.356 83.8068H143.76V84.8469H139.054V77.3494H140.356V83.8068ZM146.839 77.921V79.2753H147.822V80.2022H146.839V83.3124C146.839 83.5253 146.88 83.6797 146.963 83.7759C147.048 83.8685 147.199 83.9149 147.416 83.9149C147.56 83.9149 147.706 83.8977 147.853 83.8634V84.8315C147.568 84.9104 147.294 84.9499 147.029 84.9499C146.068 84.9499 145.588 84.4195 145.588 83.3588V80.2022H144.671V79.2753H145.588V77.921H146.839ZM149.181 82.0199C149.181 81.1617 149.38 80.4734 149.779 79.955C150.177 79.4332 150.711 79.1723 151.38 79.1723C151.971 79.1723 152.448 79.3783 152.812 79.7902V76.9375H154.063V84.8469H152.93L152.868 84.2702C152.494 84.7233 151.995 84.9499 151.37 84.9499C150.718 84.9499 150.189 84.6873 149.784 84.1621C149.382 83.6368 149.181 82.9228 149.181 82.0199ZM150.433 82.1281C150.433 82.6945 150.541 83.1373 150.757 83.4566C150.977 83.7724 151.287 83.9303 151.689 83.9303C152.201 83.9303 152.575 83.702 152.812 83.2455V80.8665C152.582 80.4202 152.211 80.197 151.699 80.197C151.294 80.197 150.982 80.3584 150.762 80.6811C150.542 81.0003 150.433 81.4827 150.433 82.1281ZM156.781 83.5287C157.015 83.5287 157.195 83.5956 157.322 83.7295C157.449 83.86 157.512 84.0247 157.512 84.2238C157.512 84.4195 157.449 84.5826 157.322 84.713C157.195 84.8401 157.015 84.9036 156.781 84.9036C156.558 84.9036 156.381 84.8401 156.251 84.713C156.12 84.586 156.055 84.423 156.055 84.2238C156.055 84.0247 156.119 83.86 156.246 83.7295C156.373 83.5956 156.551 83.5287 156.781 83.5287Z" fill="#535B66"/>
</g>
<defs>
<clipPath id="clip0">
<rect width="158" height="88" fill="white"/>
</clipPath>
</defs>
</svg>
