<svg width="40" height="40" viewBox="0 0 40 40" fill="none" xmlns="http://www.w3.org/2000/svg">
<g clip-path="url(#clip0)">
<ellipse cx="19.8804" cy="20" rx="19.8804" ry="20" fill="white"/>
<path d="M39.7607 20.0013C39.7607 8.95222 30.8627 0 19.8804 0C8.89807 0 0 8.95222 0 20.0013C0 29.9843 7.26996 38.259 16.7741 39.7607V25.7832H11.7238V20.0013H16.7741V15.5946C16.7741 10.5822 19.7401 7.81343 24.2829 7.81343C26.4585 7.81343 28.7335 8.20378 28.7335 8.20378V13.1235H26.2261C23.757 13.1235 22.9867 14.6655 22.9867 16.2471V20.0013H28.5003L27.6185 25.7832H22.9867V39.7607C32.4908 38.259 39.7607 29.9843 39.7607 20.0013Z" fill="#1877F2"/>
</g>
<defs>
<clipPath id="clip0">
<rect width="39.7607" height="40" fill="white"/>
</clipPath>
</defs>
</svg>
