<svg width="80" height="80" viewBox="0 0 80 80" fill="none" xmlns="http://www.w3.org/2000/svg">
<path d="M63.3334 3.3335H16.6667C15.868 3.34269 15.0991 3.63842 14.5 4.16683C16.8772 5.00317 18.9686 6.49602 20.532 8.47238C22.0954 10.4487 23.0667 12.8277 23.3334 15.3335C23.3843 15.7765 23.3843 16.2238 23.3334 16.6668V73.3335C23.3318 73.9711 23.5131 74.5957 23.8558 75.1333C24.1984 75.671 24.6881 76.0991 25.2667 76.3668C25.8467 76.6338 26.4911 76.7286 27.1234 76.64C27.7557 76.5514 28.3492 76.283 28.8334 75.8668L38.3334 67.7335L47.8334 75.8668C48.4372 76.3833 49.2055 76.667 50 76.667C50.7946 76.667 51.5629 76.3833 52.1667 75.8668L61.6667 67.7335L71.1667 75.8668C71.7705 76.3832 72.5389 76.6669 73.3334 76.6668C73.8156 76.6634 74.2921 76.5613 74.7334 76.3668C75.312 76.0991 75.8017 75.671 76.1443 75.1333C76.487 74.5957 76.6683 73.9711 76.6667 73.3335V16.6668C76.6667 13.1306 75.2619 9.73922 72.7615 7.23874C70.261 4.73825 66.8696 3.3335 63.3334 3.3335ZM60 50.0002H40C39.116 50.0002 38.2681 49.649 37.643 49.0238C37.0179 48.3987 36.6667 47.5509 36.6667 46.6668C36.6667 45.7828 37.0179 44.9349 37.643 44.3098C38.2681 43.6847 39.116 43.3335 40 43.3335H60C60.8841 43.3335 61.7319 43.6847 62.3571 44.3098C62.9822 44.9349 63.3334 45.7828 63.3334 46.6668C63.3334 47.5509 62.9822 48.3987 62.3571 49.0238C61.7319 49.649 60.8841 50.0002 60 50.0002ZM60 36.6668H40C39.116 36.6668 38.2681 36.3156 37.643 35.6905C37.0179 35.0654 36.6667 34.2176 36.6667 33.3335C36.6667 32.4494 37.0179 31.6016 37.643 30.9765C38.2681 30.3514 39.116 30.0002 40 30.0002H60C60.8841 30.0002 61.7319 30.3514 62.3571 30.9765C62.9822 31.6016 63.3334 32.4494 63.3334 33.3335C63.3334 34.2176 62.9822 35.0654 62.3571 35.6905C61.7319 36.3156 60.8841 36.6668 60 36.6668ZM60 23.3335H40C39.116 23.3335 38.2681 22.9823 37.643 22.3572C37.0179 21.7321 36.6667 20.8842 36.6667 20.0002C36.6667 19.1161 37.0179 18.2683 37.643 17.6431C38.2681 17.018 39.116 16.6668 40 16.6668H60C60.8841 16.6668 61.7319 17.018 62.3571 17.6431C62.9822 18.2683 63.3334 19.1161 63.3334 20.0002C63.3334 20.8842 62.9822 21.7321 62.3571 22.3572C61.7319 22.9823 60.8841 23.3335 60 23.3335ZM16.6667 16.6668V43.3335H6.66671C5.78265 43.3335 4.93481 42.9823 4.30968 42.3572C3.68456 41.7321 3.33337 40.8842 3.33337 40.0002V16.6668C3.33337 16.2002 3.33337 15.7668 3.33337 15.3335C3.51019 13.5654 4.38213 11.9399 5.7574 10.8147C7.13267 9.68949 8.8986 9.15668 10.6667 9.3335C12.4348 9.51031 14.0603 10.3823 15.1855 11.7575C16.3107 13.1328 16.8435 14.8987 16.6667 16.6668Z" fill="white"/>
</svg>
