<?xml version="1.0" encoding="utf-8"?>
<!-- Generator: Adobe Illustrator 22.0.1, SVG Export Plug-In . SVG Version: 6.00 Build 0)  -->
<svg version="1.1" id="圖層_1" xmlns="http://www.w3.org/2000/svg" xmlns:xlink="http://www.w3.org/1999/xlink" x="0px" y="0px"
	 viewBox="0 0 200 88" style="enable-background:new 0 0 200 88;" xml:space="preserve" width="200" height="88">
<style type="text/css">
	.st0{fill:#6B81B3;}
</style>
<g>
	<g>
		<path class="st0" d="M6,73.5c-0.4,0.9-0.9,1.8-1.5,2.7v9.2H2.8v-6.8c-0.4,0.5-0.9,0.9-1.3,1.3l-0.8-1.6c1.4-1.2,2.6-3,3.7-5.2
			L6,73.5z M8.8,71.7H7v1.2H5.3v-1.2H1v-1.5h4.3v-1.4H7v1.4h1.8V71.7z M9.9,82.2c-1.3,1.3-2.5,2.2-3.8,2.9l-0.9-1.3
			c1.5-0.8,2.6-1.7,3.4-2.5L9.9,82.2z M17.6,80.7h-5.2v4.7h-1.7v-4.7H5.4v-1.5h5.3V78H6.5v-4.4h10V78h-4.1v1.3h5.2V80.7z M14.7,76.5
			V75H8.2v1.5H14.7z M17.5,71.7h-4.3v1.2h-1.7v-1.2H9.7v-1.5h1.9v-1.4h1.7v1.4h4.3V71.7z M17.9,83.8l-1.1,1.3
			c-1.2-1-2.4-1.9-3.7-2.7l1.1-1.1C15.3,81.8,16.5,82.7,17.9,83.8z"/>
		<path class="st0" d="M38.6,81c-0.1,1.6-0.3,2.7-0.7,3.3c-0.4,0.6-1,0.9-1.7,0.9c-2.2,0-3.5,0-3.8-0.1c-0.3-0.1-0.5-0.2-0.7-0.5
			c-0.2-0.2-0.3-0.6-0.3-1v-6.3h-2.6c-0.2,2.4-0.8,4.2-1.7,5.4c-0.9,1.2-2.5,2.1-4.5,2.7l-0.9-1.6c1.4-0.2,2.6-0.8,3.6-1.7
			c1-0.9,1.6-2.5,1.8-4.8h-4.9v-1.7h7.2v-6.9h1.8v6.9h7.1v1.7h-5.1v5.8c0,0.1,0.1,0.3,0.2,0.3c0.1,0.1,0.6,0.1,1.3,0.1
			c0.9,0,1.4,0,1.5-0.1c0.1,0,0.2-0.1,0.3-0.3c0.1-0.1,0.2-0.5,0.2-1.1c0.1-0.6,0.1-1.2,0.1-1.8L38.6,81z M27.5,74.5l-1.6,0.7
			c-0.6-1.5-1.4-3-2.5-4.6l1.5-0.8C25.9,71.2,26.8,72.8,27.5,74.5z M37,70.6c-0.7,1.7-1.6,3.2-2.6,4.6l-1.5-0.8
			c0.9-1.2,1.8-2.8,2.6-4.7L37,70.6z"/>
		<path class="st0" d="M59.7,74.2l-0.8,1.6c-0.9-0.4-1.6-0.6-1.9-0.8v1.3h-4.8V79h4.7v1.6h-4.7v2.8h7V85H43.3v-1.6h7.1v-2.8h-4.8V79
			h4.8v-2.7h-4.9v-1.4c-0.6,0.3-1.2,0.5-1.9,0.8l-0.8-1.6c2.7-1,4.8-2.1,6.2-3.4h-1.5v-1.6h4.7C53.4,71.2,55.9,72.9,59.7,74.2z
			 M56.2,74.6c-2.1-1.1-3.8-2.3-4.9-3.8c-1.1,1.3-2.9,2.6-5.3,3.8H56.2z"/>
		<path class="st0" d="M80.4,73.1h-10c0,1.1-0.1,2-0.2,2.8h8.2c-0.1,2.3-0.2,4.1-0.4,5.6c-0.2,1.5-0.3,2.4-0.5,2.7
			c-0.2,0.4-0.5,0.6-0.9,0.8s-1.1,0.3-2.1,0.3c-0.7,0-1.4,0-2.2-0.1l-0.4-1.7c1,0.1,1.8,0.1,2.5,0.1c0.8,0,1.2-0.1,1.4-0.2
			c0.2-0.2,0.3-0.7,0.5-1.6c0.1-0.9,0.2-2.4,0.3-4.4h-6.5c-0.4,3.2-2.2,5.8-5.4,7.9l-1.1-1.5c1.1-0.6,2-1.4,2.9-2.4
			c0.9-1,1.4-2.1,1.7-3.3c0.3-1.2,0.4-3,0.5-5.2h-4.8v-1.6h7.5c-0.4-0.8-0.9-1.6-1.4-2.3l1.8-0.5c0.7,1.1,1.2,2.1,1.5,2.9h7.1V73.1z
			"/>
		<path class="st0" d="M90.2,69.1c-0.2,0.7-0.5,1.5-1,2.4l-0.7,1.4v12.5h-1.7v-9.6c-0.4,0.5-0.8,1.1-1.4,1.7l-0.8-1.8
			c1.5-1.8,2.8-4.2,3.8-7.1L90.2,69.1z M101.5,84.9H89.2v-1.7h3.1c-0.3-2.6-0.7-5.6-1.4-8.8l1.2-0.8h-2.5v-1.7h5
			c-0.2-0.8-0.6-1.8-1.1-2.9l1.7-0.4c0.4,1,0.8,2.1,1.1,3.3h4.7v1.7h-2.5l1.4,0.8c-0.3,2.9-0.8,5.8-1.4,8.8h3V84.9z M98.2,73.6h-5.8
			c0.5,2.3,1.1,5.5,1.6,9.6h2.7C97.4,79.7,97.9,76.5,98.2,73.6z"/>
		<path class="st0" d="M114,70.6h-2.6v0.7h2.1v1.2c-1.7,2-4,3.4-7,4.1l-0.8-1.4c1-0.2,1.9-0.5,2.7-0.8c-0.4-0.4-0.8-0.7-1.2-0.9
			c-0.2,0.3-0.5,0.5-0.9,0.7l-0.7-1.3c0.9-0.7,1.7-1.6,2.4-2.9l1.4,0.4c-0.1,0.3-0.3,0.5-0.4,0.7h0.8v-2.5h1.6v0.6h2.6V70.6z
			 M122.5,77.8l-0.7,1.3c-0.7-0.2-1.3-0.4-1.9-0.6V82l1.1,0.7l-0.9,1c0.9,0.2,1.6,0.4,2.3,0.7l-0.7,1.3c-2.1-0.7-4.4-1.2-6.9-1.6
			l0.6-1.2c1,0.1,1.9,0.3,2.9,0.5c0.3-0.3,0.6-0.5,0.9-0.8h-9.5v1.4c2-0.3,3.4-0.6,4.3-0.8v1.4c-1.5,0.4-3.5,0.7-6,1l-0.4-1.4
			c0.3-0.1,0.5-0.4,0.5-0.8v-4.6c-0.4,0.1-0.9,0.3-1.5,0.5l-0.8-1.3c3.7-1,6.4-2.4,8.3-4l1.5,0.7c0,0-0.1,0.1-0.2,0.2
			C116.9,75.8,119.3,76.9,122.5,77.8z M111.5,72.5h-3.2c0.3,0.2,0.8,0.6,1.6,1.2C110.6,73.2,111.2,72.8,111.5,72.5z M118.7,78.2
			c-0.6-0.2-1.4-0.6-2.2-1v0.5h-4.8V77c-0.6,0.3-1.5,0.7-2.6,1.2H118.7z M118.3,79.8v-0.5h-8.6v0.5H118.3z M118.3,81.3v-0.6h-8.6
			v0.6H118.3z M115.5,76.5c-0.4-0.2-0.8-0.5-1.3-1c-0.4,0.3-0.9,0.6-1.5,1H115.5z M121.8,74.5l-1,1.1c-0.9-0.8-1.7-1.5-2.3-1.9
			c-0.8,0.5-1.5,0.9-2.2,1.1l-1-1.3c0.5-0.1,1.1-0.4,1.9-0.7c-0.6-0.4-1.4-0.9-2.4-1.4l0.7-0.9h-0.8v-1.2h6.9v1.2
			c-0.4,0.8-1,1.6-1.8,2.3C120.5,73.3,121.2,73.9,121.8,74.5z M119.9,70.4h-3.8c0.9,0.5,1.7,1,2.4,1.4C119,71.4,119.4,71,119.9,70.4
			z"/>
		<path class="st0" d="M135.1,71.9l-1,1.4c-0.2-0.3-0.5-0.6-0.9-0.9v1.1h-4v-0.8c-0.5,0.4-1.2,0.9-2.1,1.5l-0.7-1.6
			c1.7-1,3.1-2.3,4-4l1.6,0.5c0,0.1-0.1,0.2-0.2,0.4C133.1,70.2,134.2,71,135.1,71.9z M134.3,83.2l-1.3,0.9c0-0.1-0.1-0.3-0.2-0.5
			c-1.8,0.8-3.4,1.5-4.9,1.9l-0.7-1.4c0.3-0.2,0.5-0.5,0.5-0.9v-9.1h6.3v6.1h-4.6v3c1.2-0.5,2.2-0.8,2.7-1.1
			c-0.2-0.4-0.4-0.8-0.6-1.1l1.4-0.6C133.4,81.3,133.8,82.2,134.3,83.2z M132.3,76.5v-0.8h-3v0.8H132.3z M132.4,78.9v-1h-3v1H132.4z
			 M132.7,72c-0.7-0.6-1.3-1-1.7-1.2c-0.2,0.3-0.6,0.7-1.1,1.2H132.7z M143.7,83.9l-1,1.4c-2.1-1.5-3.4-3.4-4-5.5
			c-0.5,1.7-1.1,2.9-1.8,3.8c-0.7,0.8-1.3,1.5-1.8,1.9l-1.2-1.3c0.7-0.5,1.3-1.1,1.8-1.8c0.5-0.7,0.9-1.3,1.2-2
			c0.3-0.7,0.5-1.4,0.6-2.1c0.1-0.7,0.2-2.1,0.2-4.4h1.7c0,0.3,0,0.7,0,1C139.3,79.1,140.8,82.1,143.7,83.9z M143.1,71.2
			c-0.3,2.7-0.8,4.7-1.4,6l-1.5-0.6c0.5-1.2,0.9-2.4,1.1-3.8h-3.9c-0.5,1.4-1.1,2.5-1.7,3.4l-1.4-1c1.2-2,2-4.2,2.4-6.6l1.7,0.2
			c-0.1,0.5-0.3,1.3-0.5,2.4H143.1z"/>
		<path class="st0" d="M153.9,81.6c-1.6,1.3-3.3,2.2-5.2,3l-1-1.4c1.8-0.7,3.5-1.6,5-2.7L153.9,81.6z M164.1,79.7l-1.4,1
			c-0.4-0.6-0.8-1.1-1.1-1.4c-1.8,0.2-3.4,0.4-4.7,0.5v3.9c0,0.5-0.1,0.9-0.5,1.2c-0.3,0.3-1.3,0.5-3,0.5l-0.7-1.7
			c0.7,0,1.3,0.1,1.9,0.1c0.3,0,0.5-0.2,0.5-0.5V80c-2.6,0.1-4.5,0.2-5.8,0.2l-0.4-1.5c1.6-0.4,3.5-1.2,5.6-2.4
			c-2.2,0.1-3.8,0.2-4.7,0.2l-0.3-1.2c2.6-0.8,5-2.1,7-4l1.6,0.9c-1.3,1.1-2.8,2.1-4.6,2.8l1.5-0.1l2.3-0.2c0.1,0,0.5-0.3,1.3-0.8
			l1.3-1l1.5,1c-3,2.1-5.8,3.6-8.4,4.6c2.2-0.1,4.7-0.3,7.4-0.6c-0.3-0.3-0.7-0.7-1.1-1.1l1.5-0.9C162.2,77.4,163.3,78.6,164.1,79.7
			z M158.3,69.5c-1.9,1.6-4.6,2.8-8,3.7l-1-1.5c3.1-0.7,5.6-1.7,7.6-3.2L158.3,69.5z M164.5,83.4l-1.1,1.3c-1.3-1.1-3-2.1-5-3.1
			l1.2-1.2C161.6,81.4,163.2,82.4,164.5,83.4z"/>
		<path class="st0" d="M171.1,81c-0.2,1.9-0.6,3.4-1.2,4.6l-1.4-0.7c0.6-1.1,1-2.5,1.2-4.2L171.1,81z M175.7,79.7l-1.5,0.5
			c0-0.1-0.1-0.4-0.2-1c-1.7,0.5-3.3,0.9-5,1.1l-0.3-1.3c1.1-0.9,2.2-2.2,3.4-3.9c-1,0.2-2,0.3-2.9,0.3l-0.2-1.1
			c1.4-1.6,2.6-3.5,3.4-5.7l1.6,0.6c-0.8,1.9-1.7,3.4-2.8,4.7c0.7-0.1,1.3-0.1,1.8-0.2c0.4-0.6,0.7-1.1,0.9-1.7l1.5,0.8
			c-1.3,2.4-2.7,4.3-4,5.7c0.8-0.2,1.5-0.4,2.2-0.6c-0.1-0.4-0.2-0.6-0.3-0.8l1.3-0.6C175.1,77.6,175.5,78.6,175.7,79.7z
			 M173.5,84.8l-1.4,0.3c0-1.2-0.1-2.6-0.5-4.1l1.3-0.3C173.3,82.1,173.5,83.5,173.5,84.8z M175.8,83.1l-1.3,0.5
			c-0.2-1.1-0.4-2-0.7-2.7l1.3-0.5C175.3,81.2,175.6,82.1,175.8,83.1z M185.5,80.9c-0.1,2-0.2,3.1-0.3,3.3c-0.1,0.2-0.3,0.4-0.6,0.7
			c-0.3,0.3-0.9,0.4-2,0.4c-0.9,0-1.4-0.1-1.7-0.4c-0.3-0.3-0.4-0.8-0.4-1.6v-6.4c-0.6,0.1-1.1,0.2-1.5,0.2c0,1.4-0.1,2.5-0.2,3.5
			c-0.1,0.9-0.4,1.8-0.9,2.7c-0.5,0.9-1.2,1.7-2,2.3l-1.2-1.2c0.6-0.4,1.1-0.9,1.5-1.6c0.5-0.7,0.8-1.4,1-2.2
			c0.2-0.8,0.3-1.9,0.2-3.4l-1.7,0.2l-0.3-1.3c1.1-1.3,2-2.7,2.7-4.2h-2.8v-1.6h3.5c0.2-0.4,0.4-0.9,0.6-1.8l1.7,0.3
			c-0.2,0.6-0.4,1.1-0.6,1.5h4.7v1.6h-5.4c-0.6,1.2-1.3,2.4-2.2,3.7c1.6-0.1,3.1-0.3,4.5-0.5c-0.2-0.4-0.6-0.8-1-1.3l1.3-0.9
			c1.3,1.6,2.2,2.9,2.8,4l-1.4,0.9c-0.3-0.6-0.6-1.1-0.9-1.5l-1,0.2v6.7c0,0.3,0.3,0.5,0.8,0.5c0.5,0,0.7-0.2,0.8-0.5
			c0.1-0.3,0.2-1.3,0.2-2.9L185.5,80.9z"/>
	</g>
	<g>
		<g>
			<path class="st0" d="M2.2,3.5h24.1v11.1h-9.9v10.5h8.8v10.5h-8.8V59H2.2V3.5z"/>
			<path class="st0" d="M43.4,3.5v7.2H29.3V3.5H43.4z M43.4,13.5V59H29.3V13.5H43.4z"/>
			<path class="st0" d="M62.7,7.5v7.2h3.7v7.2h-3.7v24.3c0,3,0.2,4.7,0.5,5c0.3,0.3,1.6,0.5,3.8,0.5V59h-5.5c-3.1,0-5.3-0.1-6.7-0.4
				c-1.3-0.3-2.5-0.9-3.5-1.8c-1-0.9-1.6-2-1.9-3.3c-0.2-1.2-0.4-4.1-0.4-8.6V21.8h-2.9v-7.2H49V7.5H62.7z"/>
			<path class="st0" d="M99.9,20.3H86.7v-4.1c0-1.9-0.2-3.1-0.5-3.7c-0.3-0.5-0.9-0.8-1.7-0.8c-0.9,0-1.5,0.4-1.9,1.1
				c-0.4,0.7-0.7,1.8-0.7,3.2c0,1.9,0.2,3.2,0.7,4.2c0.5,0.9,1.8,2.1,4,3.4c6.3,3.8,10.3,6.9,12,9.4c1.6,2.4,2.5,6.4,2.5,11.8
				c0,4-0.5,6.9-1.4,8.7c-0.9,1.9-2.7,3.4-5.3,4.7c-2.6,1.3-5.7,1.9-9.1,1.9c-3.8,0-7.1-0.7-9.7-2.2c-2.7-1.5-4.5-3.3-5.3-5.6
				c-0.8-2.3-1.3-5.5-1.3-9.6v-3.6h13.2v6.7c0,2.1,0.2,3.4,0.6,4c0.4,0.6,1,0.9,2,0.9c0.9,0,1.6-0.4,2.1-1.1
				c0.5-0.8,0.7-1.9,0.7-3.4c0-3.3-0.4-5.4-1.3-6.4c-0.9-1-3.1-2.7-6.7-5c-3.5-2.4-5.9-4.1-7-5.2c-1.1-1.1-2.1-2.6-2.9-4.5
				c-0.8-1.9-1.1-4.3-1.1-7.3c0-4.2,0.5-7.4,1.6-9.3c1.1-2,2.8-3.5,5.2-4.6c2.4-1.1,5.3-1.7,8.6-1.7c3.7,0,6.8,0.6,9.4,1.8
				c2.6,1.2,4.3,2.7,5.2,4.6c0.8,1.8,1.3,5,1.3,9.4V20.3z"/>
			<path class="st0" d="M136,29.5v11.1c0,4.1-0.2,7.1-0.6,9c-0.4,1.9-1.3,3.7-2.6,5.3c-1.3,1.7-3,2.9-5.1,3.7
				c-2.1,0.8-4.5,1.2-7.2,1.2c-3,0-5.6-0.3-7.7-1c-2.1-0.7-3.7-1.7-4.9-3c-1.2-1.4-2-3-2.5-4.9c-0.5-1.9-0.7-4.8-0.7-8.7V30.5
				c0-4.2,0.5-7.5,1.4-9.9c0.9-2.4,2.5-4.3,4.9-5.7c2.3-1.4,5.3-2.2,9-2.2c3.1,0,5.7,0.5,7.9,1.4c2.2,0.9,3.9,2.1,5.1,3.6
				c1.2,1.5,2,3,2.4,4.6C135.8,23.9,136,26.3,136,29.5z M122.4,26.1c0-2.3-0.1-3.8-0.4-4.4c-0.2-0.6-0.8-0.9-1.6-0.9
				s-1.4,0.3-1.6,0.9c-0.3,0.6-0.4,2.1-0.4,4.4v20.5c0,2.1,0.1,3.5,0.4,4.2c0.3,0.7,0.8,1,1.6,1c0.8,0,1.3-0.3,1.6-0.9
				c0.3-0.6,0.4-1.9,0.4-3.8V26.1z"/>
			<path class="st0" d="M157.9,3.5v7c-2.8,0-4.5,0.1-5,0.4c-0.5,0.3-0.8,1-0.8,2.2v1.4h5.2v7.2h-2.7V59H141V21.8h-2.8v-7.2h2.8
				c0-3,0.1-5,0.3-6c0.2-1,0.7-1.9,1.5-2.7c0.8-0.8,1.9-1.4,3.4-1.8c1.4-0.4,3.7-0.6,6.7-0.6H157.9z"/>
			<path class="st0" d="M174.9,7.5v7.2h3.8v7.2h-3.8v24.3c0,3,0.2,4.7,0.5,5c0.3,0.3,1.6,0.5,3.8,0.5V59h-5.5
				c-3.1,0-5.3-0.1-6.7-0.4c-1.3-0.3-2.5-0.9-3.5-1.8c-1-0.9-1.6-2-1.9-3.3c-0.2-1.2-0.4-4.1-0.4-8.6V21.8h-1.7v-7.2h1.7V7.5H174.9z
				"/>
		</g>
		<g>
			<path class="st0" d="M187.3,29v-8.8h3.8c0.8,0,1.4,0.1,1.8,0.2c0.4,0.2,0.7,0.4,1,0.8c0.2,0.4,0.4,0.8,0.4,1.3
				c0,0.6-0.2,1.1-0.6,1.6c-0.4,0.4-1,0.7-1.8,0.8c0.3,0.1,0.5,0.3,0.7,0.4c0.3,0.3,0.7,0.7,1,1.2l1.5,2.4h-1.4l-1.1-1.8
				c-0.3-0.5-0.6-0.9-0.8-1.2c-0.2-0.3-0.4-0.5-0.6-0.6c-0.2-0.1-0.3-0.2-0.5-0.2c-0.1,0-0.3,0-0.6,0h-1.3V29H187.3z M188.4,24.1
				h2.5c0.5,0,0.9-0.1,1.2-0.2c0.3-0.1,0.5-0.3,0.7-0.5c0.2-0.2,0.2-0.5,0.2-0.8c0-0.4-0.1-0.8-0.4-1c-0.3-0.3-0.8-0.4-1.4-0.4h-2.7
				V24.1z"/>
		</g>
		<g>
			<path class="st0" d="M190.5,33.2c-4.8,0-8.7-3.9-8.7-8.7c0-4.8,3.9-8.7,8.7-8.7c4.8,0,8.7,3.9,8.7,8.7
				C199.3,29.3,195.4,33.2,190.5,33.2z M190.5,16.5c-4.4,0-8,3.6-8,8s3.6,8,8,8s8-3.6,8-8S194.9,16.5,190.5,16.5z"/>
		</g>
	</g>
</g>
</svg>
